<?xml version="1.0" standalone="no"?>
<!DOCTYPE svg PUBLIC "-//W3C//DTD SVG 20010904//EN"
 "http://www.w3.org/TR/2001/REC-SVG-20010904/DTD/svg10.dtd">
<svg version="1.0" xmlns="http://www.w3.org/2000/svg"
 width="520.000000pt" height="520.000000pt" viewBox="0 0 520.000000 520.000000"
 preserveAspectRatio="xMidYMid meet">
<metadata>
Created by potrace 1.14, written by Peter Selinger 2001-2017
</metadata>
<g transform="translate(0.000000,520.000000) scale(0.100000,-0.100000)"
fill="#000000" stroke="none">
<path d="M2401 5190 c-1145 -96 -2088 -912 -2335 -2020 -81 -367 -81 -772 0
-1140 216 -972 992 -1747 1964 -1964 367 -81 772 -81 1140 0 972 216 1747 992
1964 1964 81 367 81 772 0 1140 -216 972 -992 1747 -1964 1964 -233 52 -547
74 -769 56z m511 -450 c567 -120 1047 -567 1239 -1152 l32 -98 48 0 49 0 0
-34 c0 -22 -6 -36 -16 -40 -9 -3 -172 -6 -364 -6 l-348 0 -21 -32 c-11 -18
-21 -28 -21 -23 0 6 7 21 16 33 15 21 14 22 -15 22 -23 0 -31 5 -31 18 -1 16
-1 16 -14 0 -9 -12 -27 -18 -55 -18 l-41 0 0 40 0 40 330 0 c238 0 330 3 330
11 0 44 -109 289 -180 404 -102 168 -280 358 -436 467 -413 291 -942 340
-1389 129 -335 -158 -598 -427 -760 -776 -49 -105 -91 -222 -83 -230 4 -5 379
-8 405 -4 5 1 63 1 130 0 121 -1 123 -1 121 -23 0 -13 1 -30 3 -38 3 -12 -10
-16 -69 -18 -56 -2 -72 0 -66 9 5 9 2 10 -12 3 -10 -5 -184 -10 -386 -12
l-368 -3 0 41 0 40 44 0 44 0 32 98 c92 283 290 586 510 779 239 210 514 341
820 389 123 19 396 11 522 -16z m-322 -244 c0 -3 -4 -8 -10 -11 -5 -3 -10 -1
-10 4 0 6 5 11 10 11 6 0 10 -2 10 -4z m-89 -133 c13 -16 12 -17 -3 -4 -10 7
-18 15 -18 17 0 8 8 3 21 -13z m-101 -113 c0 -5 -5 -10 -11 -10 -5 0 -7 5 -4
10 3 6 8 10 11 10 2 0 4 -4 4 -10z m98 -17 c2 -8 -5 -13 -17 -13 -12 0 -21 6
-21 16 0 18 31 15 38 -3z m-150 -35 c-2 -6 -10 -14 -16 -16 -7 -2 -10 2 -6 12
7 18 28 22 22 4z m-435 -82 c6 -14 0 -26 -13 -26 -3 0 -6 9 -7 20 -2 23 12 27
20 6z m934 -28 c-3 -8 -6 -5 -6 6 -1 11 2 17 5 13 3 -3 4 -12 1 -19z m240 -20
c-3 -8 -6 -5 -6 6 -1 11 2 17 5 13 3 -3 4 -12 1 -19z m-923 -75 c8 -19 -14
-37 -28 -23 -10 10 -1 40 13 40 5 0 12 -8 15 -17z m921 -23 c3 -5 1 -10 -4
-10 -6 0 -11 5 -11 10 0 6 2 10 4 10 3 0 8 -4 11 -10z m-330 -20 c10 -11 16
-20 13 -20 -3 0 -13 9 -23 20 -10 11 -16 20 -13 20 3 0 13 -9 23 -20z m55 -45
c13 -14 21 -25 18 -25 -2 0 -15 11 -28 25 -13 14 -21 25 -18 25 2 0 15 -11 28
-25z m347 -12 c-3 -10 -5 -4 -5 12 0 17 2 24 5 18 2 -7 2 -21 0 -30z m-180
-15 c-3 -7 -5 -2 -5 12 0 14 2 19 5 13 2 -7 2 -19 0 -25z m300 10 c-3 -8 -6
-5 -6 6 -1 11 2 17 5 13 3 -3 4 -12 1 -19z m273 -23 c7 -8 11 -15 9 -16 -39
-7 -49 -7 -49 2 0 5 5 7 12 3 8 -5 9 -2 5 9 -8 21 6 22 23 2z m-1181 -135 c27
-38 27 -68 -1 -79 -36 -15 -95 -71 -80 -77 7 -3 -23 -27 -67 -54 -94 -56 -108
-62 -116 -50 -3 6 -16 5 -31 0 -22 -9 -23 -8 -15 8 18 32 40 57 41 45 0 -24
20 -13 75 41 97 95 154 192 156 263 l2 48 7 -58 c4 -34 16 -71 29 -87z m-409
104 c0 -14 -12 -19 -23 -8 -9 9 4 35 14 28 5 -3 9 -12 9 -20z m1397 -6 c-3 -8
-6 -5 -6 6 -1 11 2 17 5 13 3 -3 4 -12 1 -19z m383 7 c0 -8 -4 -15 -9 -15 -13
0 -22 16 -14 24 11 11 23 6 23 -9z m-803 -57 c-3 -7 -5 -2 -5 12 0 14 2 19 5
13 2 -7 2 -19 0 -25z m50 -10 c-3 -8 -6 -5 -6 6 -1 11 2 17 5 13 3 -3 4 -12 1
-19z m-187 -148 c32 -50 33 -53 15 -66 -10 -8 -25 -14 -32 -14 -7 0 -13 -7
-13 -15 0 -20 18 -19 62 4 45 22 134 36 143 21 11 -19 88 -54 200 -92 113 -39
111 -41 -10 -9 -84 23 -321 33 -427 20 -40 -5 -73 -7 -75 -5 -3 2 18 12 46 21
29 9 51 23 51 30 0 16 -27 8 -123 -34 -53 -23 -122 -28 -133 -10 -4 7 -22 9
-44 6 l-38 -5 31 27 c77 64 118 92 127 86 6 -3 10 0 10 7 0 11 61 68 74 68 2
0 2 -9 -1 -20 -7 -27 20 -26 58 1 24 17 29 28 30 62 l1 42 7 -36 c4 -20 23
-60 41 -89z m172 68 c-7 -7 -12 -8 -12 -2 0 6 3 14 7 17 3 4 9 5 12 2 2 -3 -1
-11 -7 -17z m-429 -48 c-3 -10 -11 -25 -19 -31 -8 -6 -14 -17 -14 -24 0 -17
-109 -111 -142 -124 -19 -7 -33 -5 -54 6 -19 10 -47 13 -82 11 l-52 -5 37 23
c109 64 317 173 324 169 4 -3 5 -14 2 -25z m767 7 c0 -2 -10 -12 -22 -23 l-23
-19 19 23 c18 21 26 27 26 19z m315 -57 c0 -8 -8 -16 -17 -18 -13 -2 -18 3
-18 18 0 15 5 20 18 18 9 -2 17 -10 17 -18z m285 0 c0 -12 -37 -14 -44 -2 -2
4 6 9 20 10 13 1 24 -3 24 -8z m-460 -4 c0 -2 -8 -10 -17 -17 -16 -13 -17 -12
-4 4 13 16 21 21 21 13z m527 -2 c-3 -3 -12 -4 -19 -1 -8 3 -5 6 6 6 11 1 17
-2 13 -5z m-1916 -66 c-28 -49 -71 -78 -71 -47 0 11 86 99 96 99 3 0 -9 -24
-25 -52z m1199 -113 c12 -14 15 -14 31 1 11 10 22 14 25 11 6 -6 -33 -67 -43
-67 -3 0 1 8 8 17 13 15 12 16 -8 11 -17 -5 -23 -2 -23 9 0 14 -3 13 -20 -2
-19 -18 -20 -17 -20 4 0 12 4 19 10 16 6 -3 10 -1 10 4 0 16 16 13 30 -4z
m-463 -10 c0 -8 -4 -12 -9 -9 -4 3 -8 0 -8 -7 0 -7 -2 -10 -5 -7 -7 7 5 38 14
38 4 0 8 -7 8 -15z m28 -44 c-3 -2 -5 1 -5 8 0 7 -4 10 -9 7 -4 -3 -6 7 -3 22
l5 27 8 -29 c5 -17 6 -32 4 -35z m188 42 c-3 -7 -9 -10 -14 -7 -14 8 -11 21 5
21 8 0 12 -6 9 -14z m408 -27 c-14 -36 -22 -33 -9 5 6 16 12 28 14 26 3 -2 0
-16 -5 -31z m-346 14 c3 -5 2 -10 -4 -10 -6 0 -7 -8 -4 -17 6 -15 5 -16 -9 -3
-8 8 -13 21 -11 27 6 16 19 17 28 3z m-182 -55 c-3 -9 -8 -14 -10 -11 -3 3 -2
9 2 15 9 16 15 13 8 -4z m368 -32 c-9 -16 -10 -15 -11 8 0 14 3 29 8 33 12 12
14 -22 3 -41z m-400 2 c5 4 9 2 9 -4 0 -5 -4 -12 -9 -15 -9 -6 -22 17 -20 37
1 7 3 4 6 -6 2 -9 9 -15 14 -12z m-1673 -132 c-1 -109 6 -161 19 -125 3 7 11
18 18 26 8 7 11 16 8 20 -3 3 1 8 10 12 9 3 13 12 11 19 -3 8 3 22 15 31 11
10 18 21 15 25 -5 9 26 71 48 100 19 23 178 27 178 4 0 -8 -5 -15 -11 -15 -5
0 -8 -4 -5 -9 3 -5 -11 -41 -32 -82 -20 -40 -52 -102 -70 -138 -19 -36 -39
-69 -45 -73 -7 -4 -8 -8 -2 -8 5 0 4 -5 -3 -12 -20 -20 -14 -67 18 -133 30
-63 38 -89 39 -135 1 -19 3 -22 10 -11 7 11 11 5 16 -22 4 -20 11 -37 15 -37
12 0 31 -60 23 -73 -3 -6 -1 -7 5 -3 11 7 16 -8 15 -42 -1 -7 2 -11 5 -8 4 5
62 -115 62 -129 0 -1 -45 -2 -100 -2 -96 0 -106 4 -101 31 1 5 -2 12 -7 15
-14 8 -83 182 -77 191 3 5 0 10 -6 12 -6 2 -12 16 -12 31 -1 15 -6 27 -11 27
-4 0 -6 6 -3 13 3 8 -1 14 -8 14 -27 0 -37 -51 -36 -194 l1 -143 -85 0 -84 0
0 188 c0 103 0 195 -1 204 0 10 -19 30 -41 45 l-42 27 31 13 c17 7 36 21 42
32 5 11 10 68 10 128 0 73 3 103 10 93 6 -9 10 -10 10 -3 0 6 -4 14 -10 18 -5
3 -9 46 -8 94 l1 89 31 9 c17 6 55 10 84 10 l53 0 -3 -124z m808 68 c4 -31 8
-68 9 -82 1 -14 5 -30 8 -36 4 -6 9 -34 12 -64 2 -30 9 -72 14 -94 22 -100 22
-121 -3 -148 -22 -24 -22 -26 -5 -30 14 -4 21 1 25 18 8 31 35 41 51 20 6 -10
17 -14 25 -10 7 4 2 -3 -12 -14 -14 -11 -33 -21 -44 -21 -13 0 -16 -3 -9 -12
6 -7 13 -35 16 -63 12 -90 16 -115 22 -125 3 -6 0 -10 -7 -10 -10 0 -10 -2 -1
-8 6 -4 14 -25 17 -47 3 -22 9 -57 15 -77 6 -27 6 -38 -3 -39 -7 0 -7 -2 2 -6
18 -7 14 -31 -7 -38 -29 -9 -142 -2 -149 9 -7 12 -14 50 -16 89 0 15 -5 27 -9
27 -5 0 -7 19 -5 43 2 38 0 42 -20 43 -12 1 -25 4 -29 8 -3 3 -12 1 -19 -4 -6
-6 -16 -10 -20 -9 -42 7 -49 -1 -50 -56 -1 -30 -6 -61 -11 -68 -15 -19 -22
-56 -12 -63 23 -14 -7 -21 -86 -22 l-86 0 7 56 c4 32 10 59 14 62 4 3 6 14 4
25 -2 11 4 28 13 37 11 13 12 18 3 18 -14 0 -5 51 12 61 7 4 6 9 -1 13 -7 5
-8 13 -2 23 4 9 6 24 4 34 -3 11 0 19 6 19 6 0 8 12 4 32 -5 25 -3 29 8 23 12
-7 12 -6 0 9 -8 9 -28 24 -44 33 l-29 15 28 14 c33 17 75 59 67 67 -7 8 45
317 58 340 5 10 7 22 3 28 -3 5 -3 16 0 24 4 12 28 15 115 14 l109 -1 8 -57z
m554 39 c5 -8 12 -11 16 -8 11 12 64 -21 76 -47 6 -14 15 -25 19 -25 9 0 24
-48 33 -102 5 -25 3 -38 -6 -41 -10 -4 -10 -7 0 -15 10 -7 12 -29 8 -89 -5
-86 -15 -120 -48 -166 -25 -35 -30 -73 -12 -102 6 -11 15 -37 18 -57 7 -36 6
-38 -21 -39 -15 0 -21 -3 -13 -6 44 -14 58 -26 55 -49 -1 -13 1 -24 5 -24 8 0
40 -117 40 -144 0 -13 -14 -15 -72 -15 -89 1 -111 6 -104 25 3 8 1 14 -5 14
-7 0 -9 10 -5 26 5 18 3 24 -4 19 -8 -5 -11 1 -9 16 2 13 -2 34 -9 46 -7 12
-9 29 -6 37 3 9 1 16 -6 16 -7 0 -9 8 -5 20 4 12 2 20 -5 20 -6 0 -10 10 -9
23 1 12 -3 34 -9 50 -12 28 -44 35 -87 17 -18 -7 -19 -8 -2 -15 20 -8 24 -64
5 -83 -9 -9 -9 -12 2 -12 13 0 13 -2 0 -10 -12 -8 -12 -10 -1 -10 11 0 11 -3
1 -15 -9 -10 -9 -15 -1 -15 6 0 11 -11 11 -25 0 -14 -4 -25 -8 -25 -5 0 -9 -7
-9 -15 0 -8 4 -12 9 -9 4 3 8 -17 8 -45 l0 -49 -85 -1 c-89 -1 -100 6 -68 41
15 17 15 18 -1 18 -15 0 -16 17 -15 163 l2 162 -29 31 c-16 17 -36 34 -44 37
-12 5 -12 8 4 18 11 7 30 23 43 37 25 27 24 9 24 335 l0 108 155 -3 c122 -3
157 -7 164 -18z m471 -12 l1 -33 7 30 c6 30 7 30 78 33 71 3 71 3 77 -25 10
-49 26 -162 25 -170 -1 -4 1 -16 6 -26 4 -10 5 -21 1 -24 -3 -3 -1 -12 5 -20
9 -10 8 -17 -2 -30 -9 -11 -10 -14 -2 -10 13 8 16 -1 28 -78 7 -41 48 -95 72
-95 8 0 11 -4 8 -10 -10 -17 -36 -11 -74 16 l-36 26 38 -34 c28 -25 35 -36 26
-45 -8 -8 -8 -24 -1 -57 5 -25 8 -59 6 -76 -2 -17 1 -30 7 -30 6 0 9 -9 6 -20
-3 -11 -1 -23 5 -26 5 -3 7 -17 3 -31 -3 -14 -1 -31 5 -38 6 -7 12 -33 13 -57
2 -24 7 -49 11 -56 4 -7 5 -16 2 -19 -9 -9 -96 -9 -129 0 -19 5 -27 4 -22 -3
3 -5 -1 -10 -10 -10 -11 0 -15 5 -12 14 3 7 1 18 -5 24 -6 6 -2 15 14 27 22
16 22 17 1 11 -23 -7 -24 -5 -38 91 -7 46 -17 52 -82 45 -34 -3 -43 -8 -43
-23 0 -10 -4 -19 -8 -19 -5 0 -7 -13 -4 -30 2 -18 0 -30 -7 -30 -6 0 -8 -12
-4 -32 4 -22 3 -29 -5 -24 -8 5 -12 -1 -12 -18 0 -22 -5 -25 -52 -30 -56 -7
-76 -5 -95 7 -6 4 -14 1 -17 -5 -4 -7 -4 -2 -1 12 2 14 5 34 5 45 0 17 2 18
11 5 7 -11 8 -3 4 27 -5 34 -3 44 9 49 12 5 14 10 6 19 -10 12 -3 75 9 75 4 0
7 12 8 28 0 15 3 56 6 90 5 62 5 64 -24 80 -16 10 -29 19 -29 22 1 3 15 14 32
25 32 20 72 80 64 94 -9 15 31 225 44 229 9 3 9 6 1 11 -8 5 -8 24 0 69 11 59
12 62 40 62 26 0 29 -4 30 -32z m353 20 c-5 -8 -2 -9 12 -2 23 11 275 12 327
1 27 -6 37 -5 32 2 -3 6 -2 11 3 11 5 0 10 -38 11 -85 l1 -84 -75 2 -75 3 -1
-93 c0 -51 -1 -114 -1 -140 -1 -27 3 -48 8 -49 5 0 24 -9 41 -20 33 -19 44
-37 20 -32 -8 2 -26 -10 -40 -27 -15 -16 -27 -25 -26 -20 1 6 1 23 0 38 -1 25
-3 27 -16 13 -18 -18 -19 -24 -1 -58 11 -21 14 -70 13 -213 l-2 -185 -71 0
c-45 0 -75 5 -82 13 -6 7 -10 84 -10 197 l0 185 -30 26 c-16 15 -36 29 -43 33
-11 5 -11 7 -1 12 7 3 26 17 42 31 l30 25 0 129 c0 96 -3 129 -12 130 -67 4
-114 9 -125 13 -9 4 -13 28 -13 81 l0 75 46 0 c32 0 43 -3 38 -12z m627 0 c7
-10 9 -10 9 -1 0 9 32 13 123 12 l122 0 2 -84 2 -83 -120 0 c-66 0 -122 -2
-124 -4 -6 -6 -8 -208 -2 -214 3 -3 44 -5 91 -5 l86 0 0 -85 c0 -83 0 -85 -21
-73 -15 8 -19 8 -15 0 5 -8 -16 -11 -68 -11 l-76 0 0 -110 0 -110 68 -1 c37
-1 93 -1 125 0 49 1 57 -1 57 -17 0 -10 -5 -23 -12 -30 -9 -9 -9 -12 0 -12 8
0 11 -17 10 -52 l-2 -53 -76 -3 c-41 -2 -88 1 -103 7 -17 7 -26 7 -22 1 4 -6
-36 -9 -104 -7 l-110 1 1 46 c0 25 5 51 10 58 7 8 7 12 -1 12 -7 0 -11 40 -11
130 0 103 -4 136 -17 164 -10 20 -22 34 -28 32 -5 -2 -18 1 -29 6 -17 9 -16
12 14 26 58 28 60 39 61 264 l1 205 76 2 c52 1 78 -2 83 -11z m-1165 -35 c-7
-7 -26 7 -26 19 0 6 6 6 15 -2 9 -7 13 -15 11 -17z m70 -25 c10 -32 -3 -32
-20 1 -14 26 -14 30 -1 25 8 -3 17 -15 21 -26z m-29 -18 c3 -11 9 -20 14 -20
5 0 8 -11 7 -25 -3 -27 -22 -34 -31 -11 -4 11 -1 13 11 9 13 -6 12 0 -6 30
-12 20 -17 37 -11 37 6 0 13 -9 16 -20z m373 11 c0 -6 -4 -13 -10 -16 -5 -3
-10 1 -10 9 0 9 5 16 10 16 6 0 10 -4 10 -9z m-396 -27 c3 -8 2 -12 -4 -9 -6
3 -10 10 -10 16 0 14 7 11 14 -7z m426 -101 c0 -5 -5 -15 -10 -23 -8 -12 -10
-11 -10 8 0 12 5 22 10 22 6 0 10 -3 10 -7z m85 -23 c-10 -11 -24 -20 -32 -20
-7 0 -13 -5 -13 -11 0 -5 -5 -7 -11 -3 -13 8 38 53 60 54 11 0 10 -5 -4 -20z
m35 -30 c0 -5 -11 -12 -25 -16 -13 -3 -29 -12 -36 -20 -13 -16 -29 -18 -29 -4
0 6 7 10 15 10 8 0 15 4 15 9 0 7 22 19 58 30 1 1 2 -3 2 -9z m-17 -141 c-14
-14 -102 -25 -88 -11 6 6 26 12 45 15 19 2 39 5 45 5 5 1 4 -3 -2 -9z m-3
-142 c0 -2 -14 -13 -31 -26 l-31 -23 17 26 c10 14 24 26 31 26 8 0 14 -1 14
-3z m10 -27 c-20 -13 -33 -13 -25 0 3 6 14 10 23 10 15 0 15 -2 2 -10z m293
-27 c-7 -2 -19 -2 -25 0 -7 3 -2 5 12 5 14 0 19 -2 13 -5z m44 1 c-3 -3 -12
-4 -19 -1 -8 3 -5 6 6 6 11 1 17 -2 13 -5z m-327 -18 c0 -9 -30 -14 -35 -6 -4
6 3 10 14 10 12 0 21 -2 21 -4z m367 -27 c-9 -6 -17 -20 -17 -33 0 -15 -9 -27
-26 -35 -15 -6 -29 -9 -32 -7 -2 3 7 11 22 17 32 15 34 29 4 29 -19 0 -16 5
17 24 22 12 42 21 45 19 3 -3 -3 -9 -13 -14z m-382 -9 c3 -5 1 -10 -4 -10 -6
0 -11 5 -11 10 0 6 2 10 4 10 3 0 8 -4 11 -10z m290 -30 c-3 -5 -11 -10 -16
-10 -6 0 -7 5 -4 10 3 6 11 10 16 10 6 0 7 -4 4 -10z m-278 -17 c2 -5 -10 -8
-28 -5 -19 3 -26 7 -19 12 16 10 43 6 47 -7z m359 -42 c-10 -11 -31 -25 -47
-31 -21 -9 -28 -18 -24 -30 6 -18 -21 -48 -32 -36 -4 3 2 13 13 21 19 14 19
14 0 15 -26 0 -11 15 51 51 59 33 60 33 39 10z m-376 -26 c-6 -8 -9 -19 -6
-24 4 -5 2 -12 -4 -16 -5 -3 -10 -3 -11 2 0 4 -2 18 -5 31 -3 17 1 22 17 22
18 0 19 -3 9 -15z m-315 -45 c-15 -5 -15 -7 -1 -19 9 -7 13 -17 10 -22 -7 -12
-34 16 -34 35 0 9 5 16 11 16 5 0 7 6 3 13 -5 7 -1 6 10 -3 17 -13 17 -14 1
-20z m652 -26 c-3 -3 -12 -4 -19 -1 -8 3 -5 6 6 6 11 1 17 -2 13 -5z m-10 -45
c-9 -6 -15 -14 -13 -18 3 -5 -6 -6 -19 -3 -14 2 -22 9 -19 14 3 5 8 7 11 4 3
-3 15 1 26 9 12 8 23 12 26 9 3 -3 -2 -10 -12 -15z m-642 -22 c13 -3 9 -5 -12
-6 -26 -1 -31 2 -26 15 3 9 9 11 12 6 3 -5 15 -12 26 -15z m655 -36 c0 -9 -40
-67 -40 -58 0 4 7 19 16 32 16 25 16 25 -17 26 -27 0 -30 2 -14 8 21 8 55 3
55 -8z m-595 -21 c-3 -5 -10 -10 -16 -10 -5 0 -9 5 -9 10 0 6 7 10 16 10 8 0
12 -4 9 -10z m-56 -16 c2 -2 -5 -4 -17 -4 -12 0 -25 0 -29 -1 -4 0 -9 5 -11
11 -3 7 5 9 25 4 15 -4 30 -8 32 -10z m-279 -8 c0 -2 -8 -10 -17 -17 -16 -13
-17 -12 -4 4 13 16 21 21 21 13z m23 -31 c-10 -13 -22 -25 -27 -25 -9 0 11 29
29 42 17 13 17 9 -2 -17z m82 15 c3 -5 1 -10 -5 -10 -7 0 -21 -10 -32 -22 -10
-13 -17 -16 -14 -8 3 8 9 23 12 33 7 19 29 23 39 7z m176 -31 c-9 -23 -10 -22
-10 11 -1 23 2 31 9 24 7 -7 7 -19 1 -35z m91 29 c-4 -4 -23 -11 -41 -14 -26
-5 -32 -4 -27 5 5 7 14 10 22 7 8 -3 14 -1 14 4 0 5 9 8 20 7 11 -1 16 -5 12
-9z m376 -24 c-4 -3 -12 5 -18 18 -12 22 -12 22 6 6 10 -10 15 -20 12 -24z
m-2448 11 c0 -8 -7 -15 -15 -15 -12 0 -15 -14 -15 -70 0 -63 -2 -70 -20 -70
-17 0 -20 6 -18 38 3 76 -2 102 -17 102 -8 0 -15 7 -15 15 0 11 12 15 50 15
38 0 50 -4 50 -15z m244 -56 c9 -39 16 -78 16 -85 0 -21 -23 -17 -45 9 l-20
22 -3 -22 c-4 -25 -42 -33 -42 -9 0 16 30 137 37 149 2 4 12 7 23 7 14 0 21
-15 34 -71z m267 61 c10 -6 19 -17 19 -25 0 -17 -26 -20 -35 -5 -9 15 -25 12
-25 -5 0 -8 11 -22 25 -31 60 -39 52 -98 -12 -92 -20 2 -41 10 -47 20 -15 24
0 34 29 18 41 -22 42 -1 2 36 -40 38 -47 67 -19 83 22 13 39 13 63 1z m229
-28 c0 -21 3 -41 6 -45 12 -12 34 22 34 51 0 24 4 29 19 25 16 -4 18 -15 19
-84 0 -71 -2 -79 -19 -79 -15 0 -19 7 -19 35 0 28 -4 35 -20 35 -16 0 -20 -7
-20 -35 0 -24 -5 -35 -15 -35 -12 0 -15 16 -15 85 0 69 3 85 15 85 11 0 15
-11 15 -38z m280 11 l1 -28 20 25 c20 23 49 36 49 21 0 -3 -7 -16 -15 -28 -14
-20 -17 -73 -4 -73 5 0 29 -45 29 -55 0 -3 -9 -5 -20 -5 -12 0 -25 10 -32 25
-6 14 -15 25 -20 25 -4 0 -8 -11 -8 -25 0 -16 -6 -25 -15 -25 -12 0 -15 16
-15 85 0 69 3 85 15 85 10 0 15 -10 15 -27z m350 12 c0 -10 -10 -15 -30 -15
-23 0 -30 -4 -30 -20 0 -13 7 -20 20 -20 11 0 20 -7 20 -15 0 -8 -9 -15 -20
-15 -13 0 -20 -7 -20 -20 0 -16 7 -20 30 -20 20 0 30 -5 30 -15 0 -11 -12 -15
-47 -14 -53 1 -116 16 -77 18 28 1 35 20 28 81 -3 27 -3 54 1 60 3 5 26 10 51
10 32 0 44 -4 44 -15z m214 -7 c9 -12 17 -32 17 -43 1 -11 5 -2 8 20 4 27 12
41 24 43 15 3 17 -6 17 -83 l0 -87 -25 4 c-13 3 -23 2 -20 -1 2 -4 -1 -13 -6
-21 -8 -11 -9 -5 -6 20 3 21 -1 46 -9 60 -14 24 -14 24 -12 -15 2 -31 -1 -40
-14 -43 -16 -3 -18 6 -18 82 0 68 3 86 14 86 8 0 22 -10 30 -22z m346 7 c0 -8
-9 -15 -20 -15 -18 0 -20 -7 -20 -70 0 -63 -2 -70 -20 -70 -18 0 -20 7 -20 70
0 56 -3 70 -15 70 -15 0 -20 12 -10 22 3 2 27 5 55 7 39 2 50 -1 50 -14z m425
-5 c10 -11 15 -26 11 -35 -7 -21 -31 -14 -31 8 0 9 -9 23 -20 31 -20 15 -20
15 1 16 11 0 29 -9 39 -20z m220 -65 c0 -68 -3 -80 -17 -83 -16 -3 -18 6 -18
83 0 77 2 86 18 83 14 -3 17 -15 17 -83z m275 70 c0 -8 -7 -15 -15 -15 -12 0
-15 -14 -15 -70 0 -63 -2 -70 -20 -70 -18 0 -20 7 -20 70 0 56 -3 70 -15 70
-8 0 -15 7 -15 15 0 11 12 15 50 15 38 0 50 -4 50 -15z m212 -16 l15 -30 13
30 c12 29 29 39 43 25 7 -7 -24 -75 -32 -70 -3 2 -5 -18 -4 -45 1 -42 -1 -49
-18 -49 -15 0 -19 7 -19 35 0 20 -6 48 -14 63 -7 15 -17 37 -20 50 -11 34 19
28 36 -9z m-760 -49 c-4 -50 -2 -60 12 -60 9 0 16 7 16 15 0 8 9 15 20 15 22
0 25 -12 10 -41 -7 -13 -21 -19 -45 -19 -24 0 -38 6 -45 19 -14 28 -13 118 3
124 30 13 33 6 29 -53z m-52 27 c0 -16 -6 -23 -21 -24 -22 -2 -49 -20 -49 -33
0 -5 16 -14 35 -20 19 -6 38 -16 41 -22 4 -6 -1 -6 -14 1 -11 6 -32 11 -46 11
-19 0 -26 5 -26 19 0 11 5 23 10 26 15 9 12 25 -6 25 -9 0 -12 -5 -8 -12 6
-10 4 -10 -7 0 -7 6 -24 12 -38 13 l-26 0 24 10 c14 5 44 7 68 3 34 -5 44 -3
49 10 9 23 14 20 14 -7z m275 13 c-3 -5 -14 -10 -23 -10 -15 0 -15 2 -2 10 20
13 33 13 25 0z m-65 -15 c0 -8 -4 -15 -10 -15 -5 0 -7 7 -4 15 4 8 8 15 10 15
2 0 4 -7 4 -15z m-694 -13 c17 -10 16 -11 -13 -12 -38 0 -65 9 -58 20 7 11 46
6 71 -8z m269 8 c8 -13 -5 -13 -25 0 -13 8 -13 10 2 10 9 0 20 -4 23 -10z
m-35 -19 c0 -11 -59 -36 -66 -29 -3 3 7 8 21 12 14 4 25 13 25 22 0 8 5 12 10
9 6 -3 10 -10 10 -14z m90 -5 c0 -8 13 -23 29 -32 17 -10 28 -22 25 -26 -3 -5
-12 -4 -20 3 -13 10 -18 6 -15 -13 2 -12 -59 -9 -96 4 -45 16 -42 28 5 17 55
-13 82 -11 82 6 0 8 -9 19 -20 25 -24 13 -26 30 -5 30 8 0 15 -6 15 -14z m374
-31 c-8 -20 -40 -28 -64 -15 -27 14 -25 18 4 13 13 -3 32 0 43 6 23 14 23 14
17 -4z m3 -40 c0 -8 -4 -15 -9 -15 -10 0 -11 14 -1 23 9 10 10 9 10 -8z m-303
-9 c-3 -8 -12 -17 -20 -20 -11 -4 -12 -2 -1 14 14 23 29 27 21 6z m476 -5 c0
-4 -11 -6 -25 -3 -14 2 -25 6 -25 8 0 2 11 4 25 4 14 0 25 -4 25 -9z m-216
-13 c-3 -4 -21 -8 -40 -8 -19 0 -33 4 -30 8 2 4 20 8 40 8 19 0 32 -4 30 -8z
m-1004 -18 c0 -5 -5 -10 -11 -10 -5 0 -7 5 -4 10 3 6 8 10 11 10 2 0 4 -4 4
-10z m220 -9 c0 -11 -4 -23 -10 -26 -6 -4 -7 1 -3 10 3 10 0 21 -8 26 -11 7
-11 9 4 9 10 0 17 -8 17 -19z m583 -1 c44 -20 69 -40 48 -40 -5 0 -16 -3 -25
-6 -9 -3 -16 -1 -16 6 0 6 4 9 9 5 5 -3 12 -1 15 4 3 5 -5 11 -19 13 -14 3
-25 1 -25 -5 0 -5 -9 0 -20 13 -32 37 -30 38 33 10z m-1148 -10 c-23 -26 -13
-36 22 -22 32 12 93 12 93 1 0 -5 -15 -8 -32 -7 -18 0 -47 -2 -65 -6 -39 -9
-52 8 -27 35 9 10 19 19 22 19 3 0 -3 -9 -13 -20z m494 -16 c23 -16 25 -37 5
-88 -7 -17 -4 -18 32 -12 21 4 44 14 51 23 10 12 22 14 55 9 93 -16 114 -22
137 -38 22 -16 23 -20 12 -41 -13 -25 -139 -89 -167 -86 -3 1 -18 -11 -34 -26
-23 -22 -31 -25 -48 -16 -28 15 -32 14 -32 -9 0 -17 7 -20 44 -20 48 0 70 17
60 46 -4 12 -3 14 3 7 4 -6 24 -14 43 -18 54 -10 88 -45 71 -73 -5 -8 -160
-42 -195 -42 -6 0 -2 -6 8 -13 28 -21 17 -61 -18 -67 -25 -4 -31 -12 -41 -52
l-12 -48 44 0 c23 0 43 4 43 9 0 28 113 11 147 -21 27 -26 29 -41 6 -63 -12
-12 -25 -15 -47 -10 -17 4 -42 8 -56 10 -43 6 -193 -25 -247 -51 -60 -29 -78
-26 -129 18 -41 36 -43 48 -6 48 15 0 54 9 87 19 55 17 60 21 63 49 3 28 1 31
-23 29 -27 -2 -37 8 -49 46 -6 17 -9 16 -35 -12 -21 -22 -38 -31 -62 -31 -30
0 -31 1 -17 18 8 9 32 48 53 85 27 49 42 67 53 62 12 -4 13 -3 3 9 -10 11 -9
21 3 45 22 41 21 75 0 67 -9 -4 -23 -1 -30 5 -11 9 -18 8 -29 -1 -13 -11 -14
-8 -9 18 3 17 1 32 -5 36 -8 5 -6 16 4 36 22 43 39 50 32 12 -7 -33 -8 -33 79
-18 41 7 41 8 47 58 5 41 2 58 -14 84 -18 31 -19 33 -2 36 26 6 94 -10 122
-28z m574 29 c-26 -5 -29 -22 -10 -43 10 -12 9 -12 -5 -1 -10 7 -18 20 -18 27
0 16 -16 19 -25 4 -4 -6 -11 -8 -16 -4 -20 12 5 24 49 23 26 -1 37 -4 25 -6z
m297 -13 c6 -11 7 -19 1 -18 -5 2 -9 -1 -9 -6 0 -5 -6 -12 -13 -17 -10 -6 -9
-13 6 -31 11 -13 13 -17 5 -10 -18 15 -34 16 -24 0 4 -7 3 -8 -4 -4 -6 4 -9
13 -5 21 3 10 -1 15 -12 15 -9 0 -13 -5 -9 -11 5 -9 -28 3 -44 16 -1 1 12 2
29 3 35 1 62 19 55 38 -4 10 2 24 10 24 2 0 8 -9 14 -20z m205 -9 c-3 -6 -11
-11 -16 -11 -5 0 -4 6 3 14 14 16 24 13 13 -3z m-1370 -1 c-3 -5 -10 -10 -16
-10 -5 0 -9 5 -9 10 0 6 7 10 16 10 8 0 12 -4 9 -10z m-40 -10 c-3 -5 -10 -10
-16 -10 -5 0 -9 5 -9 10 0 6 7 10 16 10 8 0 12 -4 9 -10z m157 -4 c7 4 8 2 4
-5 -4 -6 -12 -9 -17 -5 -5 3 -21 -1 -34 -10 -13 -9 -30 -16 -37 -16 -7 0 5 11
27 24 22 14 42 20 43 15 2 -5 9 -6 14 -3z m1201 -13 c-7 -2 -19 -2 -25 0 -7 3
-2 5 12 5 14 0 19 -2 13 -5z m-62 -10 c-19 -4 -21 -7 -10 -15 10 -6 7 -7 -11
-3 -46 13 -46 25 1 24 26 -1 34 -4 20 -6z m-248 -33 c19 -22 30 -25 84 -25 49
0 63 -3 66 -16 4 -14 0 -16 -27 -8 -17 5 -44 9 -61 9 l-30 -1 24 -20 c13 -11
31 -24 40 -29 25 -14 6 -22 -21 -10 -14 7 -32 25 -42 41 -10 16 -22 27 -27 24
-5 -4 -14 5 -20 19 -15 33 -36 40 -62 21 -25 -17 -41 -20 -32 -5 3 6 4 10 1
10 -2 0 -12 3 -20 6 -12 4 -15 2 -11 -9 4 -8 -1 -17 -12 -22 -15 -5 -11 -10
23 -28 69 -37 84 -51 78 -74 -4 -15 -11 -20 -22 -16 -12 5 -14 2 -8 -12 3 -10
2 -21 -4 -25 -5 -3 14 -29 43 -58 38 -38 58 -51 71 -46 17 7 16 31 -2 27 -5
-1 -12 6 -15 17 -4 14 -1 17 12 12 14 -5 14 -3 3 11 -8 9 -19 15 -25 14 -6 -1
-11 3 -12 10 0 7 -9 19 -20 27 -11 9 -15 16 -8 16 6 0 15 -5 19 -11 9 -16 95
-69 111 -69 25 0 12 19 -39 56 -28 21 -46 40 -40 42 16 5 84 -37 77 -48 -3 -4
2 -13 10 -20 31 -26 5 -58 -36 -45 -32 11 -21 -20 16 -42 11 -7 38 -24 61 -38
64 -39 307 -93 289 -64 -5 7 1 6 16 -2 24 -13 24 -13 -11 -19 -19 -3 -48 -2
-65 2 -16 4 -43 8 -59 8 l-29 0 44 -34 c35 -27 47 -31 59 -22 13 10 13 9 1 -7
-7 -9 -19 -17 -25 -16 -23 3 -75 -14 -70 -22 3 -5 -39 7 -93 26 -54 19 -99 35
-101 35 -2 0 -1 4 2 9 4 5 -6 20 -21 33 -30 25 -68 78 -57 78 4 0 15 -6 23
-14 18 -15 149 -52 157 -44 3 3 -21 18 -53 33 -32 15 -68 37 -80 48 -15 13
-23 16 -23 7 0 -9 -9 -11 -30 -6 -17 3 -30 1 -30 -4 0 -6 5 -10 11 -10 8 0 8
-5 -1 -15 -7 -8 -16 -13 -20 -10 -11 7 0 -78 12 -93 6 -7 8 -15 4 -19 -12 -12
-76 60 -76 86 0 41 -13 55 -32 34 -14 -16 -15 -22 -3 -51 8 -18 25 -36 40 -42
14 -5 25 -14 25 -19 0 -12 -42 -1 -53 13 -6 7 -7 4 -3 -6 3 -10 1 -20 -4 -23
-6 -4 -10 8 -10 27 0 38 -13 63 -28 54 -25 -15 -21 16 5 38 l28 24 -24 25
c-24 27 -50 26 -52 -2 -1 -14 -2 -14 -6 2 -7 27 -21 20 -17 -10 2 -17 1 -20
-2 -8 -3 11 -17 30 -30 43 l-24 23 0 -25 c0 -43 21 -77 43 -70 16 5 17 3 8
-15 -9 -16 -8 -22 6 -30 12 -7 14 -10 4 -11 -7 0 -29 10 -49 22 l-35 21 -18
-24 c-18 -24 -18 -24 -12 -1 3 12 10 22 16 22 5 0 2 9 -8 20 -10 11 -13 20 -8
20 6 0 16 -7 23 -15 15 -18 44 -20 36 -2 -3 6 -9 20 -12 30 -7 18 -24 22 -40
9 -5 -4 -8 -6 -7 -3 4 6 -30 61 -38 61 -4 0 -12 -6 -18 -14 -9 -11 -6 -18 15
-35 17 -14 21 -21 12 -21 -9 0 -21 7 -28 15 -7 8 -16 12 -21 9 -5 -3 -6 2 -3
10 4 11 -1 13 -26 10 -30 -5 -31 -4 -19 18 17 33 17 33 39 13 20 -18 21 -18
34 1 14 18 15 18 40 -9 46 -49 80 -24 50 38 -15 33 -13 55 7 55 5 0 9 -11 9
-24 0 -36 21 -86 36 -86 10 0 11 6 5 23 -15 40 -22 97 -13 97 6 0 13 -20 16
-44 6 -40 35 -96 36 -69 0 7 7 10 15 7 9 -4 15 0 15 7 1 8 7 -1 15 -18 8 -18
18 -33 24 -33 11 0 20 94 9 98 -4 2 -8 13 -9 25 l0 22 -9 -21 c-7 -17 -50 -42
-50 -29 0 15 15 35 25 35 8 0 16 9 20 20 5 16 10 18 31 10 51 -20 64 -1 14 20
-16 7 -27 17 -24 22 4 6 -3 8 -17 3 -15 -4 -19 -3 -11 3 9 6 6 11 -13 20 -14
6 -25 17 -25 24 -1 7 -12 -10 -26 -39 -18 -38 -29 -50 -41 -46 -13 5 -13 7 2
15 15 9 15 12 -6 34 -12 13 -20 27 -16 30 8 8 28 -6 22 -16 -3 -4 3 -14 12
-21 15 -12 16 -11 11 9 -4 15 -2 22 9 22 9 0 13 6 9 15 -4 12 3 15 29 15 19 0
34 3 34 8 -3 15 3 17 62 17 52 0 64 -3 82 -25z m-647 5 c-36 -19 -42 -19 -26
0 7 8 22 15 34 15 18 0 17 -2 -8 -15z m-391 -24 c3 -5 2 -12 -3 -15 -5 -3 -9
1 -9 9 0 17 3 19 12 6z m1300 -11 c-31 -20 -80 -27 -89 -11 -3 4 5 6 18 4 13
-3 37 2 52 11 42 22 54 19 19 -4z m-1328 -5 c0 -8 -4 -12 -9 -9 -4 3 -8 9 -8
15 0 5 4 9 8 9 5 0 9 -7 9 -15z m-297 -10 c0 -8 -4 -15 -10 -15 -5 0 -7 7 -4
15 4 8 8 15 10 15 2 0 4 -7 4 -15z m150 5 c0 -9 -27 -14 -75 -11 -12 0 -15 -2
-7 -5 9 -4 3 -14 -20 -29 -42 -29 -59 -20 -22 12 26 21 27 23 7 18 -13 -4 -23
-2 -23 4 0 5 19 11 43 13 23 2 54 4 70 6 15 1 27 -2 27 -8z m87 -32 c-3 -8 -6
-5 -6 6 -1 11 2 17 5 13 3 -3 4 -12 1 -19z m-277 9 c0 -2 -10 -12 -22 -23
l-23 -19 19 23 c18 21 26 27 26 19z m1414 -5 c2 -4 2 -12 -2 -17 -10 -14 -35
-18 -27 -5 3 5 -2 10 -12 10 -15 0 -16 2 -3 10 18 12 37 13 44 2z m-1164 -26
c0 -8 -8 -17 -17 -20 -64 -17 -67 -17 -28 8 47 30 45 30 45 12z m1435 -35
c-17 -15 -116 -20 -122 -5 -2 7 -11 10 -18 8 -7 -3 -16 0 -21 7 -5 9 1 10 27
4 19 -5 54 -9 79 -9 35 -1 44 2 42 14 -3 12 -1 13 9 3 8 -8 9 -16 4 -22z
m-1645 12 c-1 -14 -27 -43 -39 -43 -7 0 -6 9 5 25 16 24 34 34 34 18z m120
-23 c0 -5 -4 -10 -10 -10 -5 0 -10 5 -10 10 0 6 5 10 10 10 6 0 10 -4 10 -10z
m95 -25 c-2 -31 -15 -46 -15 -16 0 15 -4 20 -12 15 -9 -5 -9 -2 1 9 19 24 27
21 26 -8z m-366 -23 c-19 -21 -36 -37 -38 -35 -5 3 59 73 67 73 2 0 -11 -17
-29 -38z m222 18 c-13 -11 -29 -20 -37 -20 -8 0 -14 -5 -14 -11 0 -5 -4 -8 -8
-5 -5 3 -9 -15 -9 -39 0 -34 4 -45 16 -46 13 -1 13 -2 -1 -6 -20 -5 -25 -57
-9 -82 7 -11 14 -10 37 7 35 25 115 107 138 142 9 13 16 20 16 14 0 -5 -13
-28 -30 -51 -16 -22 -27 -42 -25 -45 7 -7 -87 -85 -119 -99 -32 -15 -74 -95
-58 -111 15 -15 55 11 116 76 33 36 43 42 30 21 -29 -51 -49 -74 -60 -75 -14
0 -54 -55 -55 -77 -1 -12 -3 -10 -8 7 -8 30 -36 37 -61 15 -24 -22 -33 -4 -13
24 12 18 17 20 25 10 6 -10 7 -7 3 9 -4 14 -2 24 7 27 13 5 24 55 12 55 -3 0
-19 -7 -35 -16 -17 -8 -36 -13 -42 -11 -7 2 0 10 15 17 31 15 40 31 27 51 -7
12 -14 11 -43 -5 -20 -10 -33 -23 -29 -29 4 -6 1 -7 -7 -2 -10 6 -5 15 19 34
18 15 31 35 30 46 l-1 20 -6 -20 c-4 -18 -5 -19 -11 -2 -6 16 -12 13 -51 -20
-25 -21 -39 -30 -31 -20 10 13 11 17 1 17 -7 0 6 13 28 30 24 17 52 51 67 80
27 54 33 60 30 33 -3 -28 -17 -57 -32 -66 -28 -17 -13 -30 30 -23 42 6 42 6
15 -9 -48 -26 -29 -44 28 -29 15 4 23 16 26 35 3 16 2 29 -2 29 -3 0 -4 16 -2
35 5 38 1 41 -29 25 -14 -8 -19 -7 -19 3 0 8 17 19 38 26 21 7 49 21 62 32 34
26 63 25 31 -1z m1509 11 c0 -16 -31 -41 -51 -41 -28 0 -23 10 11 21 16 6 27
15 24 20 -3 5 0 9 5 9 6 0 11 -4 11 -9z m-85 -21 c3 -5 2 -10 -4 -10 -5 0 -13
5 -16 10 -3 6 -2 10 4 10 5 0 13 -4 16 -10z m228 -20 c-26 -24 -29 -30 -15
-33 9 -3 -3 -5 -28 -6 -102 -3 -120 -26 -29 -36 44 -5 58 -10 50 -18 -17 -17
-13 -24 20 -36 46 -16 66 -14 89 9 11 11 20 16 20 11 0 -17 -31 -41 -53 -41
-18 0 -19 -2 -7 -10 32 -20 0 -9 -69 26 -39 19 -71 40 -71 45 0 5 -8 9 -17 9
-10 0 -31 7 -47 15 -15 8 -39 15 -53 15 -18 0 -21 3 -12 13 7 7 31 11 64 9 62
-4 124 11 157 38 36 30 37 23 1 -10z m-1773 10 c0 -5 -4 -10 -10 -10 -5 0 -10
5 -10 10 0 6 5 10 10 10 6 0 10 -4 10 -10z m209 -20 c-8 -5 -34 -24 -59 -43
-24 -20 -48 -33 -52 -31 -5 3 20 27 54 54 35 27 65 44 67 38 2 -6 -3 -14 -10
-18z m191 19 c0 -6 7 -9 15 -5 10 4 15 -1 15 -14 0 -11 6 -19 13 -17 26 5 -1
-121 -28 -130 -20 -6 -46 23 -55 62 -11 48 4 115 25 115 8 0 15 -5 15 -11z
m1257 5 c-3 -3 -12 -4 -19 -1 -8 3 -5 6 6 6 11 1 17 -2 13 -5z m203 -53 c-14
-27 -50 -51 -75 -50 -13 0 -6 6 21 19 23 10 44 25 47 34 4 9 9 16 12 16 3 0 1
-9 -5 -19z m-2000 -15 c0 -3 -4 -8 -10 -11 -5 -3 -10 -1 -10 4 0 6 5 11 10 11
6 0 10 -2 10 -4z m-24 -88 c-9 -23 -14 -32 -11 -18 2 14 5 38 5 55 0 21 3 26
11 18 8 -8 7 -23 -5 -55z m1191 45 c5 3 15 2 23 -4 11 -6 7 -9 -16 -9 -18 0
-38 -8 -49 -20 -16 -17 -16 -20 -2 -20 9 0 19 -5 23 -12 4 -7 3 -8 -4 -4 -18
11 -15 -10 7 -53 11 -21 16 -43 12 -50 -6 -9 -10 -6 -14 11 -3 12 -6 27 -6 32
1 5 -6 13 -15 18 -9 5 -14 13 -11 18 3 5 -6 17 -21 26 -22 15 -27 15 -35 3 -8
-12 -10 -12 -19 1 -13 20 -13 40 0 40 6 0 20 -6 31 -12 19 -12 24 -9 47 19 16
19 29 28 33 21 4 -6 11 -8 16 -5z m-797 -3 c0 -5 -5 -10 -11 -10 -5 0 -7 5 -4
10 3 6 8 10 11 10 2 0 4 -4 4 -10z m1010 -12 c0 -18 -2 -20 -9 -8 -6 8 -7 18
-5 22 9 14 14 9 14 -14z m-1173 -20 c-3 -8 -6 -5 -6 6 -1 11 2 17 5 13 3 -3 4
-12 1 -19z m149 -13 c-3 -27 -22 -53 -31 -43 -5 4 25 68 32 68 1 0 0 -11 -1
-25z m588 -1 c4 -9 4 -19 2 -21 -8 -8 -26 8 -26 23 0 19 16 18 24 -2z m59 -6
c3 -10 1 -18 -4 -18 -4 0 -13 8 -18 18 -7 14 -6 19 4 19 7 0 16 -9 18 -19z
m184 -15 c-10 -10 -17 -11 -21 -4 -4 6 0 11 8 11 9 0 16 8 17 18 0 11 2 13 6
4 3 -8 -1 -21 -10 -29z m-789 -31 c16 -12 15 -13 -1 -8 -10 3 -21 6 -23 6 -2
0 -3 15 -3 33 1 26 3 28 6 7 3 -13 12 -30 21 -38z m87 28 c-3 -5 -14 -10 -23
-9 -14 0 -13 2 3 9 27 11 27 11 20 0z m791 -52 c2 -23 7 -62 10 -85 3 -27 1
-43 -5 -43 -6 0 -11 -4 -11 -10 0 -5 6 -10 14 -10 7 0 17 -10 20 -22 l6 -23
20 24 c24 28 25 41 5 41 -8 0 -15 4 -15 9 0 4 11 6 24 4 22 -4 23 -7 13 -34
-6 -16 -15 -29 -19 -29 -4 0 -5 -6 -2 -14 3 -8 2 -16 -3 -19 -11 -7 -47 23
-56 46 -8 20 -27 14 -27 -9 0 -8 -4 -15 -10 -15 -5 -1 -14 -2 -19 -3 -5 0 -13
-4 -17 -8 -14 -14 -22 -8 -17 12 3 11 14 20 24 20 24 0 24 8 -1 45 -11 17 -20
37 -20 45 1 8 7 1 14 -15 7 -17 20 -36 29 -43 23 -19 30 2 12 37 -8 17 -15 40
-14 53 0 19 4 16 20 -17 l19 -40 -6 80 c-5 82 4 102 12 23z m-828 29 c8 -10 6
-13 -7 -13 -11 0 -17 6 -14 13 3 7 6 13 8 13 1 0 7 -6 13 -13z m45 -8 c-6 -6
-9 -19 -6 -28 5 -13 3 -14 -7 -4 -11 10 -11 15 0 28 7 8 15 15 18 15 3 0 1 -5
-5 -11z m485 -8 c3 -8 -1 -12 -9 -9 -7 2 -15 10 -17 17 -3 8 1 12 9 9 7 -2 15
-10 17 -17z m56 -20 c-6 -6 -24 19 -24 34 1 6 7 1 15 -9 8 -11 12 -22 9 -25z
m196 25 c0 -8 -6 -21 -13 -28 -7 -7 -16 -21 -20 -30 -3 -10 -11 -18 -18 -18
-6 0 -8 7 -5 16 3 9 6 22 6 30 0 7 6 11 14 8 9 -3 17 3 21 15 7 24 15 27 15 7z
m-1280 -33 c-23 -29 -17 -51 8 -31 15 11 15 11 4 -3 -7 -10 -21 -15 -32 -12
-22 6 -53 -14 -45 -27 3 -5 0 -12 -6 -16 -8 -5 -9 -3 -4 6 5 9 2 10 -14 5 -16
-5 -21 -2 -21 10 0 15 -4 14 -34 -4 -18 -12 -40 -21 -47 -21 -8 1 3 10 23 20
20 11 40 24 43 30 10 17 23 11 27 -11 3 -19 6 -18 45 16 23 19 45 44 48 55 4
11 11 18 16 14 5 -3 0 -17 -11 -31z m1130 22 c0 -8 -2 -15 -4 -15 -2 0 -6 7
-10 15 -3 8 -1 15 4 15 6 0 10 -7 10 -15z m287 -7 c-3 -8 -6 -5 -6 6 -1 11 2
17 5 13 3 -3 4 -12 1 -19z m-433 -38 c-7 -6 -24 22 -23 40 0 9 6 5 14 -10 7
-14 11 -27 9 -30z m1056 24 c0 -8 -4 -14 -9 -14 -6 0 -9 9 -8 19 1 22 17 18
17 -5z m-1530 2 c0 -8 -5 -18 -10 -21 -6 -4 -8 -14 -5 -24 3 -12 -1 -17 -15
-18 -21 -2 -21 -2 0 33 l22 34 -31 0 c-27 0 -34 -6 -56 -51 -31 -61 -29 -78 7
-50 33 26 47 27 24 2 -10 -11 -15 -25 -11 -30 11 -19 31 -12 44 15 6 14 16 24
22 22 14 -5 10 -24 -4 -20 -7 2 -9 0 -5 -3 4 -4 3 -16 -3 -27 -19 -35 -3 -30
72 21 39 28 76 48 82 44 5 -3 4 -9 -3 -13 -8 -5 -9 -13 -4 -21 6 -12 5 -12 -8
-1 -14 11 -22 8 -52 -19 -20 -17 -36 -29 -36 -26 0 16 -64 -56 -94 -107 -20
-33 -36 -56 -36 -51 0 5 -5 4 -12 -3 -18 -18 -28 -15 -28 10 l0 21 -22 -21
c-13 -11 -35 -24 -50 -27 -23 -6 -28 -4 -28 11 0 15 2 16 9 6 7 -12 14 -11 39
2 17 9 34 20 37 26 9 15 25 12 25 -5 0 -14 3 -13 24 2 13 10 22 21 20 24 -2 4
7 23 21 43 14 20 24 47 24 59 -1 19 -2 19 -6 3 -3 -13 -7 -15 -12 -7 -20 31
-61 -20 -61 -75 0 -14 -4 -23 -9 -20 -4 3 -6 17 -3 31 5 28 -2 30 -38 10 -29
-16 -40 -18 -40 -7 0 9 59 36 77 35 7 0 11 3 8 7 -2 4 5 16 16 26 l21 19 -34
7 c-27 6 -37 3 -54 -16 -26 -30 -55 -18 -53 22 2 24 2 24 6 5 2 -13 10 -23 18
-23 20 0 96 90 102 122 3 15 9 25 14 23 4 -3 10 -1 14 5 10 16 75 12 75 -4z
m450 -28 c0 -11 -18 -10 -25 2 -9 15 -25 12 -25 -5 0 -8 -4 -15 -10 -15 -13 0
-13 6 1 31 9 17 13 18 27 7 14 -11 15 -10 9 7 -7 20 -7 20 8 1 8 -11 15 -23
15 -28z m731 15 c13 -16 12 -17 -3 -4 -10 7 -18 15 -18 17 0 8 8 3 21 -13z
m-1595 -41 c-11 -11 -16 -12 -16 -4 0 7 -4 10 -10 7 -13 -8 -13 1 0 26 10 18
12 18 27 4 15 -15 14 -18 -1 -33z m944 38 c0 -5 -2 -10 -4 -10 -3 0 -8 5 -11
10 -3 6 -1 10 4 10 6 0 11 -4 11 -10z m169 -60 c1 -9 -14 0 -34 22 -19 20 -35
40 -35 43 0 14 69 -51 69 -65z m335 8 c9 -42 16 -52 30 -50 15 3 16 1 5 -11
-8 -8 -17 -13 -21 -11 -4 2 -8 -6 -10 -18 l-3 -23 -19 22 c-15 17 -24 20 -38
12 -12 -6 -18 -6 -18 1 0 5 7 10 15 10 20 0 19 6 -6 47 -15 25 -25 31 -32 24
-14 -14 -47 -14 -47 0 0 6 7 9 15 5 8 -3 15 -1 15 5 0 6 5 7 10 4 6 -3 10 -1
10 6 0 7 9 3 20 -9 11 -12 20 -24 20 -27 0 -3 12 -23 26 -43 l26 -37 -6 61
c-3 33 -8 69 -12 80 -4 10 -4 16 0 12 4 -3 13 -30 20 -60z m-1904 42 c0 -5 -4
-10 -10 -10 -5 0 -10 5 -10 10 0 6 5 10 10 10 6 0 10 -4 10 -10z m1502 -50 c4
0 8 -8 8 -17 0 -14 -4 -12 -17 7 -9 14 -23 31 -30 38 -7 8 -10 19 -6 25 4 6
13 -2 22 -21 8 -18 18 -32 23 -32z m474 49 c4 -8 9 -7 15 2 5 8 9 10 9 4 0 -5
-4 -16 -9 -23 -6 -11 -10 -10 -15 4 -6 16 -8 16 -16 4 -8 -13 -10 -12 -10 3 0
19 15 23 26 6z m570 -67 c13 -69 -32 -158 -122 -242 -47 -44 -144 -116 -144
-106 0 2 -14 -9 -31 -25 -29 -27 -32 -28 -55 -13 -13 9 -24 21 -24 28 0 6 39
40 86 76 106 80 203 181 233 243 12 25 28 48 34 50 9 3 9 8 0 18 -7 7 -13 20
-13 29 1 26 29 -19 36 -58z m-1499 26 c1 -18 -2 -26 -5 -18 -3 8 -10 18 -16
23 -8 5 -6 10 4 17 8 5 15 10 16 10 1 0 1 -15 1 -32z m1118 -24 c22 -13 61
-27 86 -33 50 -11 106 -1 101 18 -1 7 2 10 8 6 34 -21 -31 -50 -92 -40 -53 9
-161 60 -185 88 l-18 21 30 -19 c17 -10 48 -29 70 -41z m-2080 21 c33 -13 51
-25 40 -25 -21 0 -128 48 -110 49 6 1 37 -10 70 -24z m-176 -36 c7 -23 10 -43
8 -45 -3 -3 -17 5 -32 18 -21 19 -25 29 -20 50 9 37 29 26 44 -23z m998 34
c-9 -9 -19 -14 -23 -11 -10 10 6 28 24 28 15 0 15 -1 -1 -17z m1050 -25 c-3
-8 -6 -5 -6 6 -1 11 2 17 5 13 3 -3 4 -12 1 -19z m-1567 -33 c-24 -25 -45 -45
-46 -45 -1 0 -1 7 0 16 2 15 71 74 85 74 3 0 -15 -20 -39 -45z m-70 6 c0 -5
-7 -11 -14 -14 -10 -4 -13 -1 -9 9 6 15 23 19 23 5z m180 -25 c0 -8 -4 -18
-10 -21 -6 -3 -7 1 -4 10 6 15 4 15 -29 1 -20 -8 -46 -24 -59 -35 -21 -20
-116 -61 -140 -61 -22 0 2 13 59 32 32 11 69 30 83 43 41 39 100 57 100 31z
m-610 -12 c8 -8 22 -20 33 -26 17 -9 19 -8 14 6 -4 10 -3 15 3 11 6 -3 10 -14
10 -24 0 -10 12 -26 26 -36 16 -10 23 -22 20 -32 -4 -11 -2 -13 9 -9 26 10 16
-20 -11 -33 -31 -14 -42 -7 -83 53 -46 69 -62 141 -21 90z m1600 0 c0 -8 -5
-12 -10 -9 -6 4 -8 11 -5 16 9 14 15 11 15 -7z m313 -1 c-7 -2 -19 -2 -25 0
-7 3 -2 5 12 5 14 0 19 -2 13 -5z m-1663 -7 c0 -2 -7 -7 -16 -10 -8 -3 -12 -2
-9 4 6 10 25 14 25 6z m1216 -23 c-10 -10 -19 5 -10 18 6 11 8 11 12 0 2 -7 1
-15 -2 -18z m-1151 2 c-32 -15 -115 -20 -115 -7 0 4 17 6 38 4 20 -2 48 1 62
7 37 15 50 11 15 -4z m346 -8 c-10 -9 -11 -8 -5 6 3 10 9 15 12 12 3 -3 0 -11
-7 -18z m394 13 c-3 -5 -11 -10 -16 -10 -6 0 -7 5 -4 10 3 6 11 10 16 10 6 0
7 -4 4 -10z m378 -19 c32 -32 14 -59 -54 -79 -43 -12 -59 -22 -59 -34 0 -13 8
-18 30 -18 32 0 70 -30 70 -55 0 -8 -18 -24 -40 -35 -26 -13 -40 -27 -40 -40
0 -11 6 -20 13 -20 22 0 38 16 32 32 -5 12 4 15 40 16 52 2 79 -9 95 -39 14
-25 -2 -49 -33 -49 -24 0 -105 -28 -125 -44 -10 -7 -12 -25 -6 -70 12 -100 12
-109 -8 -148 -17 -36 -29 -44 -53 -38 -5 1 -39 4 -75 6 -80 4 -125 22 -165 65
-30 31 -30 32 -5 24 26 -9 149 -9 185 0 22 5 45 54 45 98 0 27 -18 46 -29 31
-3 -5 -17 -15 -31 -22 -14 -6 -32 -17 -41 -24 -9 -6 -23 -8 -32 -5 -16 6 -42
81 -33 96 3 4 29 11 58 14 73 7 109 22 102 42 -6 14 -9 14 -30 0 -29 -19 -57
-19 -93 0 -36 18 -47 44 -23 52 47 16 132 57 132 63 0 4 -7 26 -15 49 -14 41
-14 42 8 50 12 5 27 6 33 4 7 -2 15 0 19 6 6 10 -7 15 -28 12 -12 -2 4 52 22
73 13 15 25 17 65 12 29 -3 58 -13 69 -25z m84 -8 c-3 -10 -5 -4 -5 12 0 17 2
24 5 18 2 -7 2 -21 0 -30z m-1087 24 c0 -2 -10 -12 -22 -23 l-23 -19 19 23
c18 21 26 27 26 19z m1127 -19 c-3 -8 -6 -5 -6 6 -1 11 2 17 5 13 3 -3 4 -12
1 -19z m126 15 c-7 -2 -21 -2 -30 0 -10 3 -4 5 12 5 17 0 24 -2 18 -5z m123
-20 c-6 -15 -9 -15 -16 -3 -6 9 -5 17 3 22 16 10 21 2 13 -19z m-1246 14 c0
-2 -15 -16 -32 -33 l-33 -29 29 33 c28 30 36 37 36 29z m1351 -30 c-5 -5 -7
-16 -4 -25 4 -10 2 -13 -5 -8 -8 5 -12 -1 -12 -18 0 -32 -10 -56 -23 -56 -7 0
-7 4 1 12 19 19 15 78 -5 79 -17 1 -17 2 0 6 9 2 17 10 17 18 0 8 7 11 21 8
13 -4 17 -9 10 -16z m-1293 -22 c-38 -36 -58 -44 -58 -24 0 6 -15 2 -33 -10
-42 -26 -87 -43 -87 -33 0 5 7 17 15 28 14 17 14 17 9 1 -6 -18 -4 -17 32 2
21 12 50 29 64 39 23 16 24 16 17 0 -9 -25 7 -22 40 7 43 37 43 29 1 -10z
m632 20 c0 -8 -2 -15 -4 -15 -2 0 -6 7 -10 15 -3 8 -1 15 4 15 6 0 10 -7 10
-15z m-504 -31 c-10 -14 -20 -23 -23 -20 -3 3 2 12 11 21 9 9 16 21 16 27 0 6
3 8 6 5 4 -4 -1 -18 -10 -33z m311 -21 c-27 -52 -70 -103 -87 -103 -5 0 7 17
28 38 20 20 46 56 56 80 11 23 21 40 23 38 2 -2 -7 -26 -20 -53z m40 5 c-2
-13 -4 -5 -4 17 -1 22 1 32 4 23 2 -10 2 -28 0 -40z m854 37 c7 19 8 18 8 -3
1 -25 -23 -26 -25 -1 -1 11 0 10 4 -1 4 -12 6 -11 13 5z m-947 -9 c-6 -15 -47
-46 -61 -46 -3 0 6 14 22 30 31 32 48 39 39 16z m216 -23 c-11 -17 -11 -17 -6
0 3 10 6 24 7 30 0 9 2 9 5 0 3 -7 0 -20 -6 -30z m621 -14 c-9 -23 -10 -23
-10 -2 -1 12 -4 30 -7 40 -6 16 -5 17 10 2 13 -12 14 -21 7 -40z m-1784 -92
c54 -78 203 -180 409 -280 70 -34 101 -54 97 -63 -3 -8 -1 -14 5 -14 6 0 12 4
14 10 3 9 165 -54 178 -69 3 -3 12 -7 20 -9 16 -3 184 -66 235 -88 17 -7 54
-20 82 -29 29 -9 55 -20 58 -25 6 -9 -58 4 -125 25 -25 8 -108 33 -185 55
-303 90 -514 179 -701 297 -50 31 -107 87 -139 137 -21 32 -24 101 -5 146 l14
35 8 -44 c4 -24 20 -62 35 -84z m1607 108 c-3 -8 -11 -13 -16 -12 -6 1 -13 -4
-16 -12 -3 -9 0 -11 8 -6 9 6 11 4 6 -4 -5 -7 -11 -10 -14 -7 -3 3 -12 0 -20
-7 -13 -10 -14 -9 -4 10 10 18 49 53 59 53 1 0 0 -7 -3 -15z m109 3 c34 -16
35 -28 2 -28 -19 0 -23 4 -18 16 5 14 2 16 -23 10 -21 -5 -25 -4 -14 4 19 13
21 12 53 -2z m877 -78 c1 -68 -69 -161 -173 -232 -33 -23 -116 -68 -185 -101
-113 -54 -127 -58 -138 -43 -10 15 -12 15 -18 1 -3 -9 -2 -13 4 -10 6 3 10 2
10 -3 0 -6 -15 -15 -32 -22 -172 -61 -261 -89 -268 -85 -5 3 -10 1 -12 -3 -3
-10 -406 -127 -413 -120 -3 2 44 21 103 42 382 135 778 320 926 433 103 78
145 132 153 194 l6 44 18 -40 c10 -22 19 -47 19 -55z m-1040 77 c0 -2 -10 -12
-22 -23 -14 -12 -18 -13 -10 -3 6 9 9 19 5 22 -3 4 1 7 10 7 10 0 17 -2 17 -3z
m-50 -17 c0 -5 -5 -10 -11 -10 -5 0 -7 5 -4 10 3 6 8 10 11 10 2 0 4 -4 4 -10z
m-855 -12 c-13 -32 -105 -75 -105 -48 0 5 6 7 13 4 7 -2 31 9 53 25 46 35 45
34 39 19z m1226 -13 c11 8 12 -6 0 -23 -7 -11 -10 -10 -15 3 -3 9 -5 24 -5 33
1 15 2 15 6 -1 2 -9 9 -15 14 -12z m-1795 -53 c-7 -6 -46 27 -46 39 0 4 10 9
23 11 17 2 23 -3 25 -20 2 -13 1 -26 -2 -30z m80 25 c47 -41 186 -139 267
-189 53 -32 57 -37 40 -47 -16 -11 -16 -11 5 -6 13 4 22 2 22 -4 0 -6 10 -11
22 -11 11 0 55 -20 97 -44 42 -24 99 -56 126 -71 67 -37 76 -46 40 -41 -41 5
-155 56 -155 69 0 6 -3 8 -6 4 -4 -3 -25 3 -48 15 -40 21 -40 22 -16 29 21 6
20 7 -13 8 -23 1 -36 5 -32 11 3 6 1 10 -4 10 -6 0 -11 -6 -11 -12 0 -9 -3
-10 -8 -2 -4 6 -19 14 -34 18 -16 3 -27 10 -27 14 4 24 -2 32 -18 24 -15 -9
-78 18 -94 41 -3 5 -9 8 -13 7 -15 -3 -85 44 -79 53 3 6 1 7 -4 4 -13 -8 -123
70 -123 86 0 7 4 6 10 -3 8 -13 10 -12 10 3 0 9 -4 17 -10 17 -11 0 -14 33 -3
43 11 11 18 8 59 -26z m714 29 c0 -3 -4 -8 -10 -11 -5 -3 -10 -1 -10 4 0 6 5
11 10 11 6 0 10 -2 10 -4z m47 -18 c-3 -8 -6 -5 -6 6 -1 11 2 17 5 13 3 -3 4
-12 1 -19z m233 4 c0 -14 -146 -112 -167 -112 -3 0 1 8 8 18 7 9 0 5 -17 -10
-30 -28 -69 -38 -62 -16 5 13 105 68 112 61 7 -7 49 20 69 45 18 21 57 31 57
14z m308 -12 c-7 -10 -14 -17 -17 -15 -4 4 18 35 25 35 2 0 -1 -9 -8 -20z
m309 -12 c-3 -7 -5 -2 -5 12 0 14 2 19 5 13 2 -7 2 -19 0 -25z m-170 8 c-3 -7
-1 -18 5 -24 14 -14 -23 -34 -43 -21 -10 6 -6 9 16 9 21 0 26 3 18 11 -11 11
-7 39 4 39 3 0 3 -6 0 -14z m-69 -21 c-6 -14 -13 -23 -15 -21 -5 5 15 46 22
46 3 0 -1 -11 -7 -25z m-8 -45 c5 7 9 2 12 -14 4 -18 -1 -31 -16 -43 -21 -18
-21 -18 -3 3 17 21 17 22 -8 38 -14 9 -25 21 -25 27 0 6 7 3 16 -6 12 -12 19
-13 24 -5z m-85 -19 c-6 -5 -25 10 -25 20 0 5 6 4 14 -3 8 -7 12 -15 11 -17z
m175 24 c0 -2 -10 -9 -22 -15 -22 -11 -22 -10 -4 4 21 17 26 19 26 11z m180
-5 c11 -7 4 -10 -25 -9 -31 0 -36 2 -20 9 26 11 28 11 45 0z m-170 -38 c0 -5
-7 -17 -15 -28 -15 -18 -15 -18 -8 0 7 22 -7 16 -44 -17 -25 -23 -32 -14 -8 9
12 12 64 44 73 44 1 0 2 -4 2 -8z m45 -31 c-3 -12 -10 -21 -15 -21 -4 0 -7 -8
-5 -17 1 -10 0 -12 -2 -5 -4 10 -8 9 -19 -5 -11 -13 -10 -8 2 17 19 41 35 62
41 56 3 -2 2 -14 -2 -25z m48 14 c-3 -9 -8 -14 -10 -11 -3 3 -2 9 2 15 9 16
15 13 8 -4z m537 -42 c0 -1 -7 1 -17 4 -11 4 -14 3 -9 -5 4 -7 1 -12 -8 -12
-9 0 -16 -4 -16 -9 0 -15 -33 -22 -43 -9 -6 9 -7 8 -3 -5 4 -14 -14 -27 -94
-67 -61 -31 -100 -45 -100 -38 0 7 -5 5 -11 -5 -12 -21 -88 -59 -101 -51 -5 3
-11 -2 -14 -10 -8 -21 -24 -20 -24 2 0 11 26 32 75 59 41 23 75 36 75 30 0 -7
11 2 24 18 20 24 28 28 42 19 13 -7 24 -7 41 0 27 13 29 23 6 28 -13 2 -5 13
31 37 60 42 104 53 128 32 10 -9 18 -17 18 -18z m-556 -12 c-4 -20 -2 -30 10
-34 24 -10 19 -27 -8 -27 -31 0 -56 10 -56 21 0 6 8 5 19 -1 11 -5 28 -10 37
-10 17 0 17 1 -1 13 -13 10 -16 21 -11 40 9 36 17 34 10 -2z m-168 -28 c-7 -7
-26 7 -26 19 0 6 6 6 15 -2 9 -7 13 -15 11 -17z m76 -25 c-7 -7 -12 -8 -12 -2
0 14 12 26 19 19 2 -3 -1 -11 -7 -17z m-32 -43 c7 -9 8 -15 2 -15 -5 0 -12 7
-16 15 -3 8 -4 15 -2 15 2 0 9 -7 16 -15z m220 -125 c-8 -5 -17 -7 -19 -4 -3
3 1 9 9 14 8 5 17 7 19 4 3 -3 -1 -9 -9 -14z m-37 -5 c-8 -22 -123 -68 -123
-49 0 10 83 42 96 37 8 -3 14 1 14 11 0 9 4 16 10 16 5 0 7 -7 3 -15z m-876
-46 c20 -7 41 -29 28 -29 -4 0 -19 6 -33 14 -15 8 -38 19 -52 25 -24 10 -24
10 5 4 17 -3 40 -9 52 -14z m743 -18 c0 -8 -53 -32 -69 -31 -5 1 59 38 67 40
1 0 2 -4 2 -9z m-630 -47 c0 -2 -9 0 -20 6 -11 6 -20 13 -20 16 0 2 9 0 20 -6
11 -6 20 -13 20 -16z m157 -110 c-3 -3 -12 -4 -19 -1 -8 3 -5 6 6 6 11 1 17
-2 13 -5z m-448 -115 l4 -24 6 25 c9 31 36 33 35 3 0 -13 3 -23 8 -23 4 0 8
11 8 25 0 16 6 25 15 25 18 0 18 -2 4 -91 -12 -69 -33 -93 -42 -46 l-4 22 -8
-23 c-4 -13 -12 -21 -19 -19 -10 3 -35 100 -36 140 0 27 24 15 29 -14z m132 9
l0 -23 11 23 c14 29 31 23 39 -14 l6 -29 4 29 c2 16 10 32 18 34 11 4 12 -7 7
-54 -4 -33 -10 -69 -13 -81 -7 -33 -33 -29 -34 5 l-1 27 -7 -25 c-11 -41 -35
-30 -43 20 -4 25 -10 60 -13 78 -5 25 -2 32 10 32 9 0 15 -9 16 -22z m135 5
c13 -17 13 -17 14 0 0 29 30 20 31 -10 1 -28 1 -28 8 -4 4 14 13 27 20 29 11
4 13 -8 7 -62 -3 -36 -9 -73 -12 -81 -9 -24 -28 -12 -35 21 l-7 29 -1 -32 c-1
-39 -28 -46 -36 -10 -27 122 -23 164 11 120z m164 -4 c0 -21 0 -21 19 2 25 31
37 19 18 -17 -13 -26 -13 -33 4 -76 16 -40 16 -48 4 -48 -8 0 -21 12 -29 28
l-15 27 -1 -27 c0 -18 -5 -28 -15 -28 -12 0 -15 15 -15 73 0 41 3 77 7 80 13
13 23 7 23 -14z m133 -1 c15 -61 19 -138 8 -138 -6 0 -14 7 -17 15 -4 8 -10
15 -15 15 -5 0 -9 -7 -9 -15 0 -8 -7 -15 -15 -15 -8 0 -15 6 -15 13 0 20 21
131 27 140 9 15 31 6 36 -15z m101 6 c18 -17 20 -42 7 -63 -5 -8 -5 -26 1 -43
6 -16 8 -32 4 -35 -9 -9 -34 16 -39 40 -3 15 -5 12 -6 -10 -1 -22 -6 -33 -16
-33 -12 0 -15 16 -15 80 0 78 1 80 24 80 14 0 32 -7 40 -16z m97 -24 c19 -98
20 -120 4 -120 -8 0 -15 7 -15 15 0 20 -17 19 -28 -1 -5 -9 -14 -14 -19 -11
-9 6 -5 58 13 135 7 35 37 24 45 -18z m85 28 c4 -6 2 -14 -4 -16 -7 -2 -12
-19 -12 -37 0 -19 -5 -37 -10 -40 -8 -5 -7 -11 0 -20 12 -15 6 -35 -11 -35 -5
0 -9 29 -9 65 0 51 -3 65 -15 65 -16 0 -20 12 -8 23 11 12 61 8 69 -5z m84 -3
c0 -8 -9 -15 -20 -15 -13 0 -20 -7 -20 -20 0 -11 7 -20 15 -20 17 0 20 -16 6
-24 -5 -4 -12 0 -14 6 -3 7 -6 1 -6 -14 -1 -22 4 -28 19 -28 11 0 20 -7 20
-15 0 -10 -11 -15 -35 -15 l-35 0 0 80 0 80 35 0 c24 0 35 -5 35 -15z m78 -53
c4 -83 22 -79 22 4 0 48 3 65 13 62 16 -6 22 -111 7 -138 -11 -21 -40 -28 -40
-10 0 6 -6 9 -12 8 -9 -2 -14 18 -16 70 -2 57 0 73 10 70 8 -3 14 -27 16 -66z
m121 59 c13 -9 8 -35 -24 -113 -5 -14 -2 -18 14 -18 12 0 21 -4 21 -10 0 -5
-16 -10 -35 -10 -41 0 -43 9 -15 80 20 50 20 50 0 50 -11 0 -20 7 -20 15 0 17
36 20 59 6z m-739 -136 c0 -8 -4 -15 -9 -15 -13 0 -22 16 -14 24 11 11 23 6
23 -9z m578 4 c-2 -6 -8 -10 -13 -10 -5 0 -11 4 -13 10 -2 6 4 11 13 11 9 0
15 -5 13 -11z"/>
<path d="M2444 4690 c-116 -14 -294 -61 -401 -108 -205 -88 -352 -191 -519
-364 -169 -175 -303 -392 -383 -621 -34 -96 -36 -107 -22 -107 5 0 17 24 26
53 164 503 554 910 1018 1061 199 65 479 86 683 51 540 -93 1009 -511 1204
-1072 18 -51 36 -93 41 -93 14 0 11 13 -17 97 -193 565 -669 992 -1211 1088
-112 19 -314 26 -419 15z"/>
<path d="M1070 3209 c0 -5 5 -7 10 -4 6 3 10 8 10 11 0 2 -4 4 -10 4 -5 0 -10
-5 -10 -11z"/>
<path d="M1392 2595 c0 -16 2 -22 5 -12 2 9 2 23 0 30 -3 6 -5 -1 -5 -18z"/>
<path d="M1386 2539 c-11 -54 -13 -79 -6 -79 5 0 10 21 12 48 5 52 2 68 -6 31z"/>
<path d="M1870 2899 c0 -11 -4 -18 -9 -15 -4 3 -6 -6 -3 -19 3 -17 0 -25 -9
-25 -10 0 -10 -3 -3 -8 7 -5 9 -25 4 -59 l-6 -53 33 0 c31 0 32 1 27 33 -3 17
-7 38 -10 45 -2 6 2 12 8 12 7 0 6 5 -2 15 -6 8 -13 33 -13 55 -2 40 -17 58
-17 19z"/>
<path d="M2450 3120 c12 -7 8 -10 -17 -10 -38 0 -35 10 -33 -144 1 -80 -2
-111 -12 -118 -8 -5 2 -6 27 -3 112 17 115 20 115 138 0 113 -12 141 -60 145
-26 2 -31 0 -20 -8z"/>
<path d="M3056 2873 c-3 -48 -9 -103 -12 -120 -6 -31 -5 -33 25 -33 17 0 31
-4 31 -10 0 -5 5 -10 11 -10 8 0 7 5 -1 15 -8 10 -15 60 -19 127 -8 139 -25
155 -35 31z"/>
<path d="M3518 2353 c7 -3 16 -2 19 1 4 3 -2 6 -13 5 -11 0 -14 -3 -6 -6z"/>
<path d="M3941 2404 c0 -11 3 -14 6 -6 3 7 2 16 -1 19 -3 4 -6 -2 -5 -13z"/>
<path d="M1291 2204 c0 -11 3 -14 6 -6 3 7 2 16 -1 19 -3 4 -6 -2 -5 -13z"/>
<path d="M2685 1888 c-71 -20 -104 -38 -72 -38 10 0 29 -7 42 -16 23 -15 25
-15 31 0 3 9 24 26 45 38 21 12 39 25 39 30 0 10 -2 10 -85 -14z"/>
<path d="M2540 1845 c-31 -11 -33 -13 -14 -19 12 -3 29 -15 39 -26 17 -19 17
-22 0 -60 -10 -23 -23 -44 -29 -48 -17 -11 -55 -69 -50 -75 8 -7 96 24 112 40
7 7 21 13 30 13 11 1 8 6 -10 16 -26 13 -28 20 -29 77 -1 89 -6 97 -49 82z
m37 -170 c0 -8 -4 -12 -9 -9 -4 3 -8 0 -8 -7 0 -7 -3 -10 -6 -6 -8 8 3 37 14
37 5 0 9 -7 9 -15z"/>
<path d="M3260 1846 c0 -9 5 -16 10 -16 6 0 10 4 10 9 0 6 -4 13 -10 16 -5 3
-10 -1 -10 -9z"/>
<path d="M3081 1834 c0 -11 3 -14 6 -6 3 7 2 16 -1 19 -3 4 -6 -2 -5 -13z"/>
<path d="M3270 1760 c0 -16 5 -32 10 -35 6 -4 7 -12 4 -18 -4 -7 -4 -9 1 -5 4
4 20 1 36 -8 27 -13 29 -13 29 4 0 10 -11 29 -25 42 -13 12 -22 26 -20 30 3 4
-4 10 -15 13 -17 4 -20 0 -20 -23z"/>
<path d="M3300 1670 c0 -28 19 -72 28 -66 13 8 1 74 -14 80 -9 3 -14 -1 -14
-14z"/>
<path d="M3469 1600 c40 -34 149 -80 189 -80 15 0 33 4 41 9 11 7 7 14 -20 30
-18 11 -34 29 -34 38 0 11 -9 19 -22 21 -13 2 -23 -1 -23 -7 0 -6 5 -11 12
-11 6 0 9 -2 7 -5 -3 -2 -38 5 -79 15 -101 26 -112 25 -71 -10z"/>
<path d="M2129 1663 c-13 -16 -12 -17 4 -4 9 7 17 15 17 17 0 8 -8 3 -21 -13z"/>
<path d="M1960 1595 c0 -21 3 -23 23 -16 33 12 35 41 3 41 -21 0 -26 -5 -26
-25z"/>
<path d="M2000 1449 c0 -5 5 -7 10 -4 6 3 10 8 10 11 0 2 -4 4 -10 4 -5 0 -10
-5 -10 -11z"/>
<path d="M3660 1690 c19 -13 30 -13 30 0 0 6 -10 10 -22 10 -19 0 -20 -2 -8
-10z"/>
<path d="M2141 1444 c0 -11 3 -14 6 -6 3 7 2 16 -1 19 -3 4 -6 -2 -5 -13z"/>
<path d="M3921 1414 c0 -11 3 -14 6 -6 3 7 2 16 -1 19 -3 4 -6 -2 -5 -13z"/>
<path d="M3700 1149 c0 -5 5 -7 10 -4 6 3 10 8 10 11 0 2 -4 4 -10 4 -5 0 -10
-5 -10 -11z"/>
<path d="M1450 1034 c0 -8 5 -12 10 -9 6 4 8 11 5 16 -9 14 -15 11 -15 -7z"/>
<path d="M1480 976 c0 -2 7 -6 15 -10 8 -3 15 -1 15 4 0 6 -7 10 -15 10 -8 0
-15 -2 -15 -4z"/>
<path d="M1720 1040 c0 -5 5 -10 11 -10 5 0 7 5 4 10 -3 6 -8 10 -11 10 -2 0
-4 -4 -4 -10z"/>
<path d="M1751 1014 c0 -11 3 -14 6 -6 3 7 2 16 -1 19 -3 4 -6 -2 -5 -13z"/>
<path d="M3440 1016 c0 -2 9 -6 20 -9 11 -3 20 -1 20 4 0 5 -9 9 -20 9 -11 0
-20 -2 -20 -4z"/>
<path d="M2690 460 c0 -11 5 -20 10 -20 6 0 10 9 10 20 0 11 -4 20 -10 20 -5
0 -10 -9 -10 -20z"/>
</g>
</svg>
