<?xml version="1.0" standalone="no"?>
<!DOCTYPE svg PUBLIC "-//W3C//DTD SVG 20010904//EN"
 "http://www.w3.org/TR/2001/REC-SVG-20010904/DTD/svg10.dtd">
<svg version="1.0" xmlns="http://www.w3.org/2000/svg"
 width="320.000000pt" height="320.000000pt" viewBox="0 0 320.000000 320.000000"
 preserveAspectRatio="xMidYMid meet">
<metadata>
Created by potrace 1.14, written by Peter Selinger 2001-2017
</metadata>
<g transform="translate(0.000000,320.000000) scale(0.100000,-0.100000)"
fill="#000000" stroke="none">
<path d="M1445 3193 c-496 -59 -906 -307 -1178 -711 -185 -274 -278 -606 -264
-942 10 -239 62 -445 167 -655 79 -158 171 -285 300 -415 317 -318 744 -485
1190 -467 316 13 618 115 870 294 122 88 287 253 372 373 252 356 351 811 268
1233 -149 759 -817 1306 -1585 1296 -60 -1 -123 -4 -140 -6z m288 -418 c-3 -9
-8 -14 -10 -11 -3 3 -2 9 2 15 9 16 15 13 8 -4z m60 8 c-7 -2 -19 -2 -25 0 -7
3 -2 5 12 5 14 0 19 -2 13 -5z m94 -9 c-3 -3 -12 -4 -19 -1 -8 3 -5 6 6 6 11
1 17 -2 13 -5z m-610 -10 c-3 -3 -12 -4 -19 -1 -8 3 -5 6 6 6 11 1 17 -2 13
-5z m673 -21 c0 -18 -90 -147 -97 -139 -3 2 16 34 42 70 28 40 45 73 41 82 -3
8 -2 12 4 9 6 -3 10 -13 10 -22z m-100 14 c0 -2 -9 -12 -20 -22 -19 -17 -20
-17 -20 -1 0 9 4 15 9 11 5 -3 12 -1 16 5 6 10 15 14 15 7z m-677 -27 c-3 -12
-8 -19 -11 -16 -5 6 5 36 12 36 2 0 2 -9 -1 -20z m216 -24 c-2 -2 -13 8 -23
22 l-19 27 24 -22 c12 -12 21 -24 18 -27z m269 19 c-3 -3 -9 2 -12 12 -6 14
-5 15 5 6 7 -7 10 -15 7 -18z m-551 -15 c3 -10 2 -11 -4 -4 -4 6 -15 14 -23
17 -11 5 -9 6 4 4 11 -1 21 -9 23 -17z m610 -12 c-3 -7 -5 -2 -5 12 0 14 2 19
5 13 2 -7 2 -19 0 -25z m-270 -160 c-2 -35 -3 -7 -3 62 0 69 1 97 3 63 2 -35
2 -91 0 -125z m119 56 l0 -109 -3 103 c-2 56 -8 102 -13 102 -6 0 -10 5 -10
11 0 6 6 9 13 7 8 -3 12 -36 13 -114z m89 -155 c-20 -37 -76 -63 -119 -55 -32
7 -86 52 -86 72 0 7 15 -3 34 -22 46 -46 91 -47 141 -3 l35 31 2 127 2 126 3
-122 c3 -98 0 -129 -12 -154z m-467 181 c0 -22 -1 -22 -8 5 -4 17 -8 41 -8 55
0 22 1 22 8 -5 4 -16 8 -41 8 -55z m115 46 c3 -7 8 -35 11 -62 l5 -49 -11 53
c-7 33 -16 52 -25 52 -8 0 -11 5 -8 10 9 14 22 12 28 -4z m884 -23 c-3 -10 -5
-4 -5 12 0 17 2 24 5 18 2 -7 2 -21 0 -30z m-1127 -97 c23 -64 40 -119 38
-122 -4 -4 -88 227 -88 242 0 18 12 -10 50 -120z m-126 5 c20 -57 35 -106 32
-108 -4 -4 -76 193 -76 209 0 21 8 2 44 -101z m773 77 c-3 -7 -5 -2 -5 12 0
14 2 19 5 13 2 -7 2 -19 0 -25z m-862 2 c3 -6 -1 -7 -9 -4 -18 7 -21 14 -7 14
6 0 13 -4 16 -10z m562 -12 c-3 -8 -6 -5 -6 6 -1 11 2 17 5 13 3 -3 4 -12 1
-19z m-597 8 c0 -2 -7 -7 -16 -10 -8 -3 -12 -2 -9 4 6 10 25 14 25 6z m-40
-20 c0 -2 -7 -7 -16 -10 -8 -3 -12 -2 -9 4 6 10 25 14 25 6z m1407 -33 c-3
-10 -5 -4 -5 12 0 17 2 24 5 18 2 -7 2 -21 0 -30z m239 -7 c-2 -24 -9 -52 -15
-62 -11 -17 -12 -17 -7 6 2 14 8 42 11 63 10 50 15 47 11 -7z m-869 -48 c-2
-18 -4 -6 -4 27 0 33 2 48 4 33 2 -15 2 -42 0 -60z m-350 35 c-3 -10 -5 -4 -5
12 0 17 2 24 5 18 2 -7 2 -21 0 -30z m1280 31 c-3 -3 -12 -4 -19 -1 -8 3 -5 6
6 6 11 1 17 -2 13 -5z m-1180 -26 c-3 -8 -6 -5 -6 6 -1 11 2 17 5 13 3 -3 4
-12 1 -19z m120 0 c-3 -8 -6 -5 -6 6 -1 11 2 17 5 13 3 -3 4 -12 1 -19z m280
-10 c-3 -7 -5 -2 -5 12 0 14 2 19 5 13 2 -7 2 -19 0 -25z m-827 2 c0 -5 -18
-19 -40 -30 -22 -11 -40 -16 -40 -10 0 5 17 18 38 29 44 24 42 23 42 11z m-95
-204 c39 -69 75 -126 82 -126 26 0 62 24 66 44 4 18 4 17 6 -4 1 -19 -7 -31
-28 -43 -16 -9 -35 -17 -43 -17 -15 0 -198 317 -198 342 0 7 11 -6 23 -28 12
-23 54 -99 92 -168z m552 167 c-3 -10 -5 -4 -5 12 0 17 2 24 5 18 2 -7 2 -21
0 -30z m840 -25 c-2 -13 -4 -5 -4 17 -1 22 1 32 4 23 2 -10 2 -28 0 -40z m276
-124 c-48 -86 -94 -159 -100 -161 -23 -9 -78 31 -80 58 -1 14 0 17 3 6 5 -16
52 -47 73 -47 5 0 49 71 98 159 48 87 89 155 91 150 2 -4 -36 -79 -85 -165z
m-1236 134 c-3 -7 -5 -2 -5 12 0 14 2 19 5 13 2 -7 2 -19 0 -25z m220 10 c-3
-8 -6 -5 -6 6 -1 11 2 17 5 13 3 -3 4 -12 1 -19z m-120 -10 c-3 -8 -6 -5 -6 6
-1 11 2 17 5 13 3 -3 4 -12 1 -19z m380 -20 c-3 -7 -5 -2 -5 12 0 14 2 19 5
13 2 -7 2 -19 0 -25z m-352 2 c-3 -5 -12 -10 -18 -10 -7 0 -6 4 3 10 19 12 23
12 15 0z m504 -92 c14 -1 35 -2 46 -3 11 -1 25 -4 30 -7 6 -3 26 -9 45 -13 34
-6 37 -4 53 30 17 35 36 42 45 17 2 -7 -2 -10 -11 -6 -9 3 -19 -6 -27 -26 -16
-39 -19 -41 -66 -29 -21 5 -61 12 -89 15 -58 6 -57 5 -71 52 -8 26 -12 30 -13
15 -3 -53 -27 -65 -85 -43 -18 7 -26 16 -25 32 1 17 2 19 6 6 5 -19 40 -32 70
-26 12 2 21 17 28 48 l9 45 15 -52 c12 -46 17 -53 40 -55z m-622 55 c-3 -10
-5 -4 -5 12 0 17 2 24 5 18 2 -7 2 -21 0 -30z m213 10 c0 -10 -10 -31 -23 -46
-28 -35 -151 -67 -174 -45 -10 11 -2 13 40 14 71 1 126 26 140 64 13 34 17 37
17 13z m790 -3 c-6 -11 -13 -20 -16 -20 -2 0 0 9 6 20 6 11 13 20 16 20 2 0 0
-9 -6 -20z m-292 -25 c-10 -23 -28 -26 -28 -4 0 6 4 8 9 5 5 -3 11 1 15 9 3 8
8 15 10 15 3 0 1 -11 -6 -25z m229 -7 c-3 -7 -5 -2 -5 12 0 14 2 19 5 13 2 -7
2 -19 0 -25z m-1130 -78 c39 -31 105 -21 145 22 32 35 38 23 8 -15 -36 -46
-105 -54 -156 -17 -22 16 -54 70 -54 92 0 7 9 -5 19 -27 10 -22 27 -47 38 -55z
m200 58 c-3 -8 -6 -5 -6 6 -1 11 2 17 5 13 3 -3 4 -12 1 -19z m-307 4 c0 -12
-46 -32 -54 -24 -4 3 4 12 16 19 27 15 38 16 38 5z m1245 -52 c-20 -38 -20
-37 15 -55 43 -22 47 -20 75 35 14 28 27 50 28 50 2 0 2 -13 -1 -30 -2 -16 -7
-30 -11 -30 -4 0 -15 -13 -24 -30 -22 -36 -34 -37 -80 -6 -19 13 -38 22 -41
19 -8 -8 -77 18 -71 27 3 5 17 5 32 -1 35 -13 53 -5 53 23 0 16 3 19 9 10 7
-11 9 -11 14 2 4 9 9 16 12 16 3 0 -1 -13 -10 -30z m-118 -2 c-3 -8 -6 -5 -6
6 -1 11 2 17 5 13 3 -3 4 -12 1 -19z m699 -191 l-3 -22 -306 -2 -307 -2 0 24
c0 31 -5 31 337 27 l283 -3 -4 -22z m-1678 1 l-3 -23 -307 -3 -308 -2 0 25 0
25 311 0 310 0 -3 -22z m-460 -175 c1 -53 4 -98 6 -100 2 -2 28 41 57 96 l54
101 53 0 53 0 -47 -87 c-26 -49 -55 -102 -65 -118 -17 -30 -22 -75 -8 -75 4 0
10 -12 13 -26 4 -14 19 -53 35 -87 105 -229 101 -207 38 -207 -40 0 -55 4 -64
18 -9 15 -46 104 -85 202 -8 23 -10 23 -19 7 -6 -9 -13 -15 -17 -13 -4 2 -6
-45 -4 -105 l3 -109 -50 0 c-48 0 -50 1 -47 28 2 19 10 28 25 30 12 2 21 10
20 20 0 11 -3 12 -6 5 -2 -7 -13 -13 -23 -13 -17 0 -18 7 -15 53 2 28 4 58 4
66 1 11 5 10 17 -5 8 -10 13 -13 9 -6 -3 6 0 12 7 12 7 1 0 8 -15 16 -17 9
-26 21 -23 29 3 8 1 17 -5 21 -6 3 -8 13 -5 21 4 10 2 13 -8 10 -24 -9 -26 4
-5 22 20 16 21 27 20 154 l-2 137 49 0 49 0 1 -97z m554 70 c3 -52 4 -58 9
-68 4 -6 12 -46 19 -90 8 -52 20 -88 33 -102 17 -19 18 -24 5 -36 -13 -13 -12
-25 2 -98 10 -46 20 -105 24 -131 l7 -48 -49 0 -50 0 -7 48 c-13 94 -12 92
-66 92 -47 0 -48 -1 -55 -35 -5 -27 -11 -35 -28 -36 -20 0 -20 -1 -1 -9 17 -8
16 -9 -9 -9 -22 -1 -27 2 -22 15 5 13 4 14 -7 6 -19 -16 -27 -5 -26 32 0 38
21 137 32 154 5 7 4 12 -3 12 -18 0 -23 30 -7 48 8 9 25 73 37 142 12 69 24
128 27 133 2 4 33 7 69 7 63 0 64 -1 66 -27z m420 7 c15 -7 34 -27 43 -45 18
-38 20 -156 4 -187 -8 -15 -8 -19 0 -14 13 8 14 4 5 -18 -3 -9 -11 -13 -17 -9
-6 3 -7 1 -3 -6 4 -6 2 -18 -4 -26 -7 -9 -10 -28 -7 -44 3 -16 1 -33 -6 -40
-9 -10 -9 -12 2 -9 7 2 15 -4 16 -12 2 -8 13 -44 24 -80 11 -36 21 -70 21 -76
0 -6 -21 -11 -50 -11 -27 0 -47 4 -44 9 3 4 1 8 -4 8 -4 0 -19 45 -32 100 -24
101 -33 115 -73 105 -21 -6 -22 -11 -20 -115 l2 -110 -49 0 -50 0 1 131 c0
115 -2 133 -18 144 -17 13 -17 14 0 32 10 12 17 36 17 62 0 26 4 40 10 36 6
-3 10 -1 10 4 0 6 -4 11 -10 11 -5 0 -10 5 -10 11 0 8 11 9 33 5 31 -6 32 -6
9 9 -12 9 -27 13 -32 10 -12 -7 -14 127 -2 139 11 12 203 0 234 -14z m332 8
c-6 -10 -4 -10 7 0 22 20 58 15 64 -10 19 -84 44 -252 38 -261 -3 -5 -1 -7 4
-4 15 10 36 -19 26 -35 -10 -16 -11 -107 -1 -110 4 -2 13 -40 21 -85 l14 -83
-48 0 -48 0 -11 58 c-7 31 -14 63 -16 70 -2 7 -21 12 -50 12 -37 0 -47 -4 -51
-20 -3 -11 -10 -20 -16 -20 -8 0 -8 -3 0 -11 6 -6 10 -17 8 -23 -2 -6 -6 -23
-9 -38 -6 -26 -10 -28 -54 -28 l-49 0 23 132 c15 84 20 136 14 143 -6 7 -4 19
6 33 8 12 21 59 29 104 34 193 32 188 71 188 25 0 33 -4 28 -12z m465 -33 l2
-45 -51 0 -50 0 -1 -47 c-3 -92 3 -138 18 -155 15 -16 15 -20 0 -36 -10 -10
-17 -24 -17 -30 0 -7 -5 -12 -11 -12 -8 0 -8 -4 -1 -12 5 -7 9 -58 8 -113 l-1
-100 -45 0 -45 0 -3 125 c-2 106 -6 128 -21 144 -18 18 -18 19 0 37 16 16 19
34 19 109 l0 90 -50 0 -50 0 0 44 0 45 148 0 148 1 3 -45z m346 0 l0 -40 -87
-3 -88 -3 0 -84 0 -85 68 0 67 0 -25 -20 c-14 -10 -21 -22 -17 -26 4 -4 7 -2
7 4 0 7 7 12 15 12 10 0 15 -10 15 -30 l0 -30 -67 0 -68 0 3 -80 3 -79 87 -3
87 -3 0 -40 0 -40 -135 0 -135 0 -1 50 c0 28 5 53 10 57 7 5 7 8 1 8 -6 0 -12
30 -13 68 -2 43 -9 73 -19 85 -15 15 -15 19 0 35 14 15 17 43 19 148 1 71 3
132 5 136 2 4 63 6 136 5 l132 -2 0 -40z m-1774 -512 c0 -10 3 -13 5 -6 4 8
13 9 30 3 13 -5 24 -7 24 -3 0 3 2 4 5 1 3 -3 3 -13 -1 -22 -8 -21 -94 -23
-94 -2 0 38 29 65 31 29z m-388 -100 c-8 -3 -13 -23 -13 -49 0 -24 -5 -44 -10
-44 -6 0 -10 18 -8 41 1 26 -3 43 -13 50 -10 6 -4 9 21 8 19 0 29 -3 23 -6z
m171 -9 c9 -24 7 -54 -3 -54 -5 0 -12 8 -14 18 -3 11 -4 10 -2 -4 1 -11 -4
-25 -11 -32 -27 -25 -30 -10 -13 51 10 38 32 49 43 21z m202 5 c4 -7 0 -9 -14
-5 -37 12 -37 -23 1 -37 38 -14 9 -63 -30 -50 -21 7 -14 22 7 16 27 -7 25 6
-6 38 -14 15 -23 32 -20 38 9 14 53 14 62 0z m146 -13 c-2 -9 4 -16 13 -16 8
0 15 9 15 20 0 11 5 20 10 20 6 0 10 -22 10 -50 0 -27 -4 -50 -9 -50 -5 0 -8
8 -7 17 0 11 -7 19 -21 21 -17 3 -20 -1 -16 -17 3 -12 1 -21 -6 -21 -7 0 -11
20 -11 51 0 36 4 49 13 46 6 -2 11 -11 9 -21z m198 14 c0 -5 -4 -10 -10 -10
-5 0 -10 5 -10 10 0 6 5 10 10 10 6 0 10 -4 10 -10z m40 1 c0 -6 -10 -17 -22
-25 -16 -12 -18 -16 -7 -16 9 0 21 -11 27 -25 9 -20 9 -25 -2 -25 -8 0 -17 7
-20 16 -3 8 -10 12 -16 9 -6 -4 -8 -11 -5 -16 4 -5 1 -9 -4 -9 -6 0 -11 16
-11 35 0 25 4 35 15 35 9 0 18 7 21 15 7 16 24 21 24 6z m181 0 c-28 -8 -41
-31 -17 -31 20 0 21 -16 1 -24 -24 -9 -17 -24 13 -29 25 -4 25 -4 -5 -6 l-33
-1 0 50 c0 50 0 50 33 49 29 -1 29 -2 8 -8z m173 -23 l14 -33 1 33 c2 53 21
36 21 -18 0 -37 -4 -50 -15 -50 -8 0 -18 12 -21 26 -5 18 -9 22 -14 13 -5 -7
-6 -18 -3 -26 3 -7 -2 -13 -11 -13 -10 0 -16 9 -16 25 0 14 5 25 12 25 9 0 9
3 1 11 -12 12 -7 39 8 39 5 0 15 -15 23 -32z m217 23 c-8 -5 -13 -25 -13 -50
0 -22 -3 -41 -9 -41 -5 0 -9 20 -9 44 0 34 -4 46 -17 49 -10 3 0 5 22 6 26 0
35 -2 26 -8z m304 -2 c4 -6 4 -13 0 -17 -4 -4 -10 -1 -12 6 -10 26 -23 10 -23
-28 0 -22 5 -40 10 -40 6 0 10 5 10 10 0 6 5 10 10 10 6 0 10 -7 10 -15 0 -10
-10 -15 -30 -15 -29 0 -30 2 -30 43 0 24 3 47 7 50 10 11 41 8 48 -4z m153
-39 c-1 -27 -5 -50 -10 -50 -4 0 -8 23 -8 50 0 28 4 50 9 50 6 0 9 -22 9 -50z
m180 39 c-12 -7 -18 -22 -18 -49 0 -22 -4 -40 -10 -40 -5 0 -10 20 -10 44 0
26 -5 46 -12 49 -7 3 5 6 27 6 32 0 36 -2 23 -10z m157 -6 c6 -17 7 -17 21 1
20 28 26 14 10 -25 -7 -19 -11 -40 -9 -46 3 -7 1 -13 -4 -13 -4 0 -13 15 -19
33 -6 17 -14 40 -19 50 -4 10 -3 17 3 17 5 0 13 -8 17 -17z m-1935 -73 c0 -5
-4 -10 -10 -10 -5 0 -10 5 -10 10 0 6 5 10 10 10 6 0 10 -4 10 -10z m904 -56
c24 -24 20 -37 -23 -70 -31 -23 -37 -32 -30 -46 5 -10 11 -36 14 -58 2 -22 6
-44 9 -48 3 -5 -1 -18 -9 -28 -13 -18 -15 -18 -44 10 -23 22 -29 35 -25 52 6
23 5 23 -25 13 -16 -6 -37 -9 -46 -7 -13 2 -11 9 10 41 14 21 31 35 36 31 6
-3 4 8 -5 24 -9 17 -20 34 -26 37 -22 13 -9 27 20 22 16 -4 32 -2 35 3 3 6 15
10 26 10 11 0 22 7 25 15 8 20 38 19 58 -1z m101 -151 c10 -28 -26 -24 -60 5
-27 25 -31 31 -17 35 20 4 69 -21 77 -40z m-195 -113 c8 -5 15 -25 16 -43 1
-28 -4 -36 -25 -45 -14 -6 -19 -11 -11 -10 44 2 50 -2 50 -32 0 -27 2 -29 18
-21 16 8 45 95 47 138 1 24 13 23 33 -2 22 -27 21 -73 -1 -87 -11 -7 -2 -12
17 -9 17 3 66 -53 66 -75 0 -29 -33 -106 -55 -128 -16 -16 -18 -16 -38 1 -19
18 -20 18 -6 -5 11 -18 20 -22 40 -18 26 5 69 -16 69 -34 0 -5 -11 -12 -25
-16 -19 -5 -24 -11 -20 -28 6 -26 -2 -38 -37 -53 -39 -17 -35 -33 8 -30 26 1
40 -3 50 -18 12 -18 11 -24 -9 -49 -18 -22 -32 -29 -63 -30 l-39 -1 -5 64 c-5
59 -3 64 17 74 23 10 31 27 13 27 -5 0 -10 -4 -10 -10 0 -5 -7 -10 -15 -10 -8
0 -15 7 -15 15 0 9 -6 12 -16 8 -9 -3 -27 6 -45 23 -16 15 -29 23 -29 18 0 -5
11 -18 25 -28 36 -27 33 -71 -7 -115 -18 -20 -23 -27 -11 -17 23 19 54 19 61
-1 2 -8 -5 -13 -17 -13 -11 0 -25 -8 -30 -17 -8 -14 -11 -15 -11 -3 -1 9 -5 5
-10 -8 -8 -19 -13 -21 -30 -12 -17 9 -19 14 -10 25 7 8 10 37 8 68 -2 42 1 57
16 72 14 15 15 20 5 24 -7 2 -15 -1 -17 -8 -5 -16 -72 -95 -84 -100 -5 -2 -2
11 6 28 9 17 24 31 34 32 9 0 12 3 6 5 -13 5 -7 44 6 44 5 0 14 16 20 35 6 19
16 35 21 35 6 0 8 4 5 9 -3 5 1 11 9 15 9 3 22 -6 35 -24 23 -33 51 -38 70
-15 10 12 10 18 0 30 -7 8 -8 15 -3 15 16 0 14 57 -2 64 -10 4 -15 -1 -15 -15
0 -21 -19 -33 -45 -27 -15 3 -15 5 2 28 20 28 30 80 15 80 -6 0 -17 3 -26 6
-11 4 -16 1 -16 -11 0 -9 5 -13 10 -10 12 8 12 8 -3 -36 -11 -33 -60 -89 -78
-89 -14 0 -21 41 -9 55 6 8 9 19 5 25 -4 6 1 17 10 24 15 11 15 13 1 25 -9 8
-16 27 -16 43 0 27 -2 29 -28 23 -19 -4 -33 -1 -41 8 -9 12 -4 18 29 31 23 9
46 13 52 10 7 -4 8 -2 4 4 -4 7 -1 12 7 12 20 0 45 30 26 31 -19 2 -21 1 -44
-6 -11 -4 -2 4 20 19 46 29 45 29 65 16z m950 -331 c-29 -70 -154 -150 -342
-220 -129 -48 -408 -132 -415 -125 -2 1 73 31 165 65 92 35 218 87 281 117 74
35 122 52 135 48 16 -4 18 -3 6 5 -8 5 -12 12 -10 14 3 2 28 19 55 37 60 41
81 63 102 110 l16 35 9 -28 c7 -19 6 -37 -2 -58z m-1790 23 c12 -28 87 -92
133 -113 15 -7 27 -16 27 -21 0 -4 5 -8 12 -8 15 0 122 -52 126 -62 2 -4 9 -8
15 -8 7 0 73 -24 147 -53 74 -30 160 -62 190 -72 30 -9 59 -21 64 -26 11 -10
-170 38 -196 52 -10 6 -18 8 -18 5 0 -4 -91 26 -224 74 -137 49 -262 127 -296
183 -24 38 -28 106 -6 88 8 -6 19 -24 26 -39z"/>
<path d="M740 2005 c-10 -12 -10 -15 4 -15 9 0 16 7 16 15 0 8 -2 15 -4 15 -2
0 -9 -7 -16 -15z"/>
<path d="M725 1960 c-3 -5 -1 -10 4 -10 6 0 11 5 11 10 0 6 -2 10 -4 10 -3 0
-8 -4 -11 -10z"/>
<path d="M575 1730 c3 -5 8 -10 11 -10 2 0 4 5 4 10 0 6 -5 10 -11 10 -5 0 -7
-4 -4 -10z"/>
<path d="M1088 1905 c-3 -6 -9 -36 -13 -68 -4 -31 -10 -59 -14 -62 -4 -2 -5
-20 -3 -39 4 -32 7 -36 33 -36 28 0 29 2 28 43 0 56 -23 174 -31 162z"/>
<path d="M1015 1760 c-3 -5 -1 -10 4 -10 6 0 11 5 11 10 0 6 -2 10 -4 10 -3 0
-8 -4 -11 -10z"/>
<path d="M973 1649 c-2 -23 3 -25 10 -4 4 8 3 16 -1 19 -4 3 -9 -4 -9 -15z"/>
<path d="M1393 2023 c4 -3 19 -8 34 -9 21 -2 24 -1 13 6 -17 11 -57 14 -47 3z"/>
<path d="M1438 1959 c3 -30 0 -38 -15 -42 -17 -4 -17 -5 0 -6 15 -1 18 -9 17
-48 -3 -73 -3 -73 34 -73 53 0 76 26 77 85 2 57 -9 117 -19 111 -4 -2 -27 -1
-52 3 l-45 7 3 -37z"/>
<path d="M1600 1510 c0 -19 11 -26 23 -14 8 8 -3 34 -14 34 -5 0 -9 -9 -9 -20z"/>
<path d="M1907 1900 c-12 -60 -25 -185 -20 -192 2 -5 20 -8 39 -8 21 0 33 4
29 10 -3 6 -10 33 -14 61 -7 44 -6 49 8 45 14 -5 13 -4 -1 7 -9 7 -21 36 -26
63 l-9 49 -6 -35z"/>
<path d="M2000 1781 c0 -5 5 -13 10 -16 6 -3 10 -2 10 4 0 5 -4 13 -10 16 -5
3 -10 2 -10 -4z"/>
<path d="M2196 1978 c3 -5 10 -6 15 -3 13 9 11 12 -6 12 -8 0 -12 -4 -9 -9z"/>
<path d="M2195 1681 c-6 -11 13 -26 22 -17 4 3 1 6 -6 6 -7 0 -9 5 -6 10 3 6
4 10 1 10 -3 0 -7 -4 -11 -9z"/>
<path d="M1500 915 c0 -8 2 -15 4 -15 2 0 6 7 10 15 3 8 1 15 -4 15 -6 0 -10
-7 -10 -15z"/>
<path d="M1540 890 c0 -11 2 -20 4 -20 2 0 6 9 9 20 3 11 1 20 -4 20 -5 0 -9
-9 -9 -20z"/>
<path d="M1674 856 c-12 -9 -18 -25 -17 -49 1 -43 9 -57 31 -56 11 0 12 2 4 6
-6 2 -10 8 -7 12 10 17 22 91 15 96 -4 2 -15 -2 -26 -9z"/>
<path d="M1643 643 c-24 -5 -30 -18 -13 -28 9 -6 70 21 70 30 0 6 -23 5 -57
-2z"/>
<path d="M1533 555 c0 -8 4 -12 9 -9 4 3 8 9 8 15 0 5 -4 9 -8 9 -5 0 -9 -7
-9 -15z"/>
<path d="M1540 520 c0 -5 5 -10 11 -10 5 0 7 5 4 10 -3 6 -8 10 -11 10 -2 0
-4 -4 -4 -10z"/>
<path d="M1680 480 c-8 -5 -11 -12 -8 -16 10 -9 38 3 38 16 0 12 -10 13 -30 0z"/>
</g>
</svg>
